<?xml version="1.0" encoding="utf-8"?>
<!-- Generator: Adobe Illustrator 24.2.0, SVG Export Plug-In . SVG Version: 6.00 Build 0)  -->
<svg version="1.1" id="레이어_4" xmlns="http://www.w3.org/2000/svg" xmlns:xlink="http://www.w3.org/1999/xlink" x="0px"
	 y="0px" viewBox="0 0 582 831.3" style="enable-background:new 0 0 582 831.3;" xml:space="preserve">
<style type="text/css">
	.st0{fill:#F4F4F4;}
	.st1{fill:#FFFFFF;}
	.st2{enable-background:new    ;}
	.st3{fill:#AAAAAA;}
	.st4{fill:#888888;}
	.st5{fill:#999999;}
</style>
<g id="배경">
	<rect id="_패스_" x="1" class="st0" width="582" height="831.3"/>
</g>
<polygon class="st1" points="536,402.7 48,402.7 48,126.5 80,72 497,72 536,126.5 "/>
<rect x="47" y="413.7" class="st1" width="488" height="204"/>
<polygon class="st1" points="48,630.7 536,630.7 536,791.4 483.3,811.7 101,811.7 48,792.7 "/>
<g>
	<g class="st2">
		<path class="st3" d="M389.4,106.7h-0.8v-5.8c-0.2,0.2-0.4,0.4-0.8,0.6c-0.3,0.2-0.6,0.4-0.8,0.5v-0.9c0.4-0.2,0.8-0.5,1.2-0.9
			c0.3-0.3,0.6-0.7,0.7-1h0.5L389.4,106.7L389.4,106.7z"/>
	</g>
	<g class="st2">
		<path class="st3" d="M390.5,119.8v0.9h-4.3c0-0.2,0-0.4,0.1-0.6c0.1-0.3,0.3-0.7,0.5-1s0.6-0.7,1-1.1c0.7-0.7,1.2-1.2,1.4-1.6
			c0.2-0.4,0.4-0.8,0.4-1.1c0-0.4-0.1-0.7-0.3-0.9s-0.5-0.4-0.9-0.4s-0.7,0.1-0.9,0.4c-0.2,0.3-0.3,0.6-0.3,1.1l-0.8-0.1
			c0.1-0.7,0.3-1.2,0.6-1.6c0.4-0.4,0.9-0.5,1.5-0.5s1.1,0.2,1.5,0.6s0.5,0.9,0.5,1.5c0,0.3-0.1,0.6-0.2,0.9s-0.3,0.6-0.5,0.9
			s-0.7,0.8-1.2,1.3s-0.8,0.8-0.9,0.9s-0.2,0.3-0.3,0.5L390.5,119.8L390.5,119.8z"/>
	</g>
	<g class="st2">
		<path class="st3" d="M386.4,132.7l0.8-0.1c0.1,0.5,0.2,0.9,0.5,1.1c0.2,0.2,0.5,0.3,0.8,0.3c0.4,0,0.7-0.1,0.9-0.4
			c0.3-0.3,0.4-0.7,0.4-1.1c0-0.4-0.1-0.8-0.4-1c-0.2-0.3-0.5-0.4-0.9-0.4c-0.1,0-0.3,0-0.6,0.1l0.1-0.8c0.1,0,0.1,0,0.1,0
			c0.3,0,0.6-0.1,0.9-0.3s0.4-0.5,0.4-0.9c0-0.3-0.1-0.6-0.3-0.8c-0.2-0.2-0.5-0.3-0.8-0.3s-0.6,0.1-0.8,0.3c-0.2,0.2-0.3,0.6-0.4,1
			l-0.8-0.2c0.1-0.6,0.3-1.1,0.7-1.4c0.4-0.3,0.8-0.5,1.3-0.5c0.4,0,0.7,0.1,1,0.3s0.5,0.4,0.7,0.7s0.2,0.6,0.2,1
			c0,0.3-0.1,0.6-0.2,0.9c-0.2,0.3-0.4,0.5-0.7,0.6c0.4,0.1,0.7,0.3,0.9,0.6c0.2,0.3,0.3,0.7,0.3,1.2c0,0.6-0.2,1.2-0.6,1.6
			s-0.9,0.7-1.6,0.7c-0.6,0-1-0.2-1.4-0.6C386.6,133.9,386.4,133.4,386.4,132.7z"/>
	</g>
	<g class="st2">
		<path class="st3" d="M388.9,147.7v-1.8h-2.8v-0.8l2.9-4.8h0.6v4.8h0.9v0.8h-0.9v1.8H388.9z M388.9,145.1v-3.4l-2,3.3L388.9,145.1
			L388.9,145.1z"/>
	</g>
	<g class="st2">
		<path class="st3" d="M386.4,159.8l0.8-0.1c0.1,0.5,0.2,0.8,0.4,1.1c0.2,0.2,0.5,0.4,0.8,0.4c0.4,0,0.7-0.2,1-0.5s0.4-0.8,0.4-1.3
			s-0.1-0.9-0.4-1.2s-0.6-0.5-1-0.5c-0.3,0-0.5,0.1-0.7,0.2c-0.2,0.1-0.4,0.3-0.5,0.5l-0.7-0.1l0.6-3.8h3.2v0.9h-2.6l-0.3,2
			c0.4-0.3,0.8-0.5,1.2-0.5c0.6,0,1,0.2,1.4,0.7c0.4,0.4,0.6,1,0.6,1.7s-0.2,1.3-0.5,1.7c-0.4,0.6-1,0.9-1.7,0.9
			c-0.6,0-1.1-0.2-1.4-0.6C386.6,160.9,386.4,160.4,386.4,159.8z"/>
	</g>
	<g class="st2">
		<path class="st3" d="M390.5,170.1l-0.8,0.1c-0.1-0.4-0.2-0.6-0.3-0.8c-0.2-0.3-0.5-0.4-0.8-0.4s-0.5,0.1-0.7,0.2
			c-0.3,0.2-0.4,0.5-0.6,0.9s-0.2,1-0.2,1.7c0.2-0.3,0.4-0.6,0.7-0.7s0.6-0.2,0.9-0.2c0.5,0,1,0.2,1.4,0.7c0.4,0.4,0.6,1,0.6,1.7
			c0,0.5-0.1,0.9-0.3,1.3c-0.2,0.4-0.4,0.7-0.7,0.9c-0.3,0.2-0.7,0.3-1,0.3c-0.7,0-1.2-0.3-1.6-0.8s-0.6-1.5-0.6-2.8
			c0-1.4,0.2-2.5,0.7-3.1c0.4-0.6,0.9-0.9,1.6-0.9c0.5,0,0.9,0.2,1.2,0.5C390.2,169.1,390.4,169.5,390.5,170.1z M387.3,173.3
			c0,0.3,0.1,0.6,0.2,0.9c0.1,0.3,0.3,0.5,0.5,0.7s0.4,0.2,0.7,0.2c0.3,0,0.6-0.2,0.9-0.5c0.2-0.3,0.4-0.7,0.4-1.3
			c0-0.5-0.1-0.9-0.4-1.2c-0.2-0.3-0.5-0.4-0.9-0.4s-0.7,0.1-0.9,0.4C387.4,172.4,387.3,172.8,387.3,173.3z"/>
	</g>
	<g class="st2">
		<path class="st3" d="M386.4,183.2v-0.9h4.2v0.7c-0.4,0.5-0.8,1.2-1.2,2c-0.4,0.8-0.7,1.7-0.9,2.6c-0.2,0.6-0.3,1.3-0.3,2h-0.8
			c0-0.6,0.1-1.3,0.3-2.1c0.2-0.8,0.5-1.6,0.8-2.4c0.4-0.8,0.7-1.4,1.1-1.9L386.4,183.2L386.4,183.2z"/>
	</g>
	<g class="st2">
		<path class="st3" d="M387.6,199.7c-0.3-0.1-0.6-0.3-0.7-0.6c-0.2-0.3-0.2-0.6-0.2-0.9c0-0.5,0.2-1,0.5-1.4s0.8-0.6,1.3-0.6
			c0.6,0,1,0.2,1.4,0.6s0.5,0.8,0.5,1.4c0,0.3-0.1,0.6-0.2,0.9s-0.4,0.5-0.7,0.6c0.4,0.1,0.7,0.4,0.9,0.7c0.2,0.3,0.3,0.7,0.3,1.2
			c0,0.6-0.2,1.2-0.6,1.6s-0.9,0.6-1.5,0.6s-1.2-0.2-1.5-0.7c-0.4-0.4-0.6-1-0.6-1.6c0-0.5,0.1-0.9,0.3-1.2
			C386.9,200,387.2,199.8,387.6,199.7z M387.2,201.6c0,0.3,0.1,0.5,0.2,0.8c0.1,0.2,0.3,0.4,0.5,0.6s0.4,0.2,0.7,0.2
			c0.4,0,0.7-0.1,0.9-0.4s0.4-0.6,0.4-1.1c0-0.4-0.1-0.8-0.4-1.1s-0.6-0.4-1-0.4s-0.7,0.1-0.9,0.4
			C387.3,200.8,387.2,201.1,387.2,201.6z M387.4,198.1c0,0.4,0.1,0.6,0.3,0.9s0.5,0.3,0.8,0.3s0.6-0.1,0.8-0.3s0.3-0.5,0.3-0.8
			s-0.1-0.6-0.3-0.8s-0.5-0.3-0.8-0.3s-0.6,0.1-0.8,0.3C387.5,197.6,387.4,197.8,387.4,198.1z"/>
	</g>
	<g class="st2">
		<path class="st3" d="M386.5,216l0.8-0.1c0.1,0.4,0.2,0.7,0.4,0.9c0.2,0.2,0.4,0.3,0.7,0.3c0.2,0,0.5-0.1,0.6-0.2
			c0.2-0.1,0.3-0.3,0.5-0.5s0.2-0.5,0.3-0.9c0.1-0.4,0.1-0.7,0.1-1.1c0,0,0-0.1,0-0.2c-0.2,0.3-0.4,0.5-0.7,0.7
			c-0.3,0.2-0.6,0.3-0.9,0.3c-0.5,0-1-0.2-1.4-0.7c-0.4-0.4-0.6-1-0.6-1.8s0.2-1.4,0.6-1.8c0.4-0.5,0.9-0.7,1.5-0.7
			c0.4,0,0.8,0.1,1.2,0.4c0.3,0.3,0.6,0.6,0.8,1.1c0.2,0.5,0.3,1.2,0.3,2.1s-0.1,1.7-0.3,2.3s-0.4,1-0.8,1.3s-0.8,0.4-1.2,0.4
			c-0.5,0-0.9-0.2-1.2-0.5S386.6,216.6,386.5,216z M389.7,212.7c0-0.5-0.1-0.9-0.4-1.2s-0.5-0.5-0.9-0.5s-0.7,0.2-0.9,0.5
			c-0.3,0.3-0.4,0.8-0.4,1.3s0.1,0.9,0.4,1.2s0.6,0.4,0.9,0.4c0.4,0,0.7-0.1,0.9-0.4S389.7,213.2,389.7,212.7z"/>
	</g>
	<g class="st2">
		<path class="st3" d="M386.8,230.7H386v-5.8c-0.2,0.2-0.4,0.4-0.8,0.6c-0.3,0.2-0.6,0.4-0.8,0.5v-0.9c0.4-0.2,0.8-0.5,1.2-0.9
			s0.6-0.7,0.7-1h0.5L386.8,230.7L386.8,230.7z"/>
		<path class="st3" d="M388.8,227c0-0.9,0.1-1.6,0.2-2.1c0.2-0.5,0.4-0.9,0.7-1.2c0.3-0.3,0.7-0.4,1.2-0.4c0.3,0,0.7,0.1,0.9,0.2
			c0.3,0.2,0.5,0.4,0.6,0.7c0.2,0.3,0.3,0.7,0.4,1.1s0.1,1,0.1,1.8c0,0.9-0.1,1.6-0.2,2.1c-0.2,0.5-0.4,0.9-0.7,1.2
			c-0.3,0.3-0.7,0.4-1.2,0.4c-0.6,0-1.1-0.3-1.5-0.8C389,229.4,388.8,228.4,388.8,227z M389.6,227c0,1.2,0.1,2,0.4,2.4
			s0.6,0.6,0.9,0.6s0.7-0.2,0.9-0.6s0.4-1.2,0.4-2.4s-0.1-2-0.4-2.4c-0.2-0.4-0.6-0.6-0.9-0.6c-0.4,0-0.7,0.2-0.9,0.5
			C389.7,225,389.6,225.8,389.6,227z"/>
	</g>
	<g class="st2">
		<path class="st3" d="M387.6,244.7h-0.8v-5.8c-0.2,0.2-0.4,0.4-0.8,0.6c-0.3,0.2-0.6,0.4-0.8,0.5v-0.9c0.4-0.2,0.8-0.5,1.2-0.9
			c0.3-0.3,0.6-0.7,0.7-1h0.5L387.6,244.7L387.6,244.7z"/>
	</g>
	<g class="st2">
		<path class="st3" d="M391.1,244.7h-0.8v-5.8c-0.2,0.2-0.4,0.4-0.8,0.6c-0.3,0.2-0.6,0.4-0.8,0.5v-0.9c0.4-0.2,0.8-0.5,1.2-0.9
			c0.3-0.3,0.6-0.7,0.7-1h0.5L391.1,244.7L391.1,244.7z"/>
	</g>
	<g class="st2">
		<path class="st3" d="M386.8,258.7H386v-5.8c-0.2,0.2-0.4,0.4-0.8,0.6c-0.3,0.2-0.6,0.4-0.8,0.5v-0.9c0.4-0.2,0.8-0.5,1.2-0.9
			s0.6-0.7,0.7-1h0.5L386.8,258.7L386.8,258.7z"/>
		<path class="st3" d="M392.9,257.8v0.9h-4.3c0-0.2,0-0.4,0.1-0.6c0.1-0.3,0.3-0.7,0.5-1s0.6-0.7,1-1.1c0.7-0.7,1.2-1.2,1.4-1.6
			c0.2-0.4,0.4-0.8,0.4-1.1c0-0.4-0.1-0.7-0.3-0.9s-0.5-0.4-0.9-0.4s-0.7,0.1-0.9,0.4c-0.2,0.3-0.3,0.6-0.3,1.1l-0.8-0.1
			c0.1-0.7,0.3-1.2,0.6-1.6c0.4-0.4,0.9-0.5,1.5-0.5s1.1,0.2,1.5,0.6s0.5,0.9,0.5,1.5c0,0.3-0.1,0.6-0.2,0.9s-0.3,0.6-0.5,0.9
			s-0.7,0.8-1.2,1.3c-0.5,0.5-0.8,0.8-0.9,0.9s-0.2,0.3-0.3,0.5L392.9,257.8L392.9,257.8z"/>
	</g>
	<g class="st2">
		<path class="st3" d="M386.8,272.7H386v-5.8c-0.2,0.2-0.4,0.4-0.8,0.6c-0.3,0.2-0.6,0.4-0.8,0.5v-0.9c0.4-0.2,0.8-0.5,1.2-0.9
			s0.6-0.7,0.7-1h0.5L386.8,272.7L386.8,272.7z"/>
		<path class="st3" d="M388.8,270.7l0.8-0.1c0.1,0.5,0.2,0.9,0.5,1.1c0.2,0.2,0.5,0.3,0.8,0.3c0.4,0,0.7-0.1,0.9-0.4
			c0.3-0.3,0.4-0.7,0.4-1.1s-0.1-0.8-0.4-1c-0.2-0.3-0.5-0.4-0.9-0.4c-0.2,0-0.3,0-0.6,0.1l0.1-0.8c0.1,0,0.1,0,0.1,0
			c0.3,0,0.6-0.1,0.9-0.3c0.3-0.2,0.4-0.5,0.4-0.9c0-0.3-0.1-0.6-0.3-0.8c-0.2-0.2-0.5-0.3-0.8-0.3s-0.6,0.1-0.8,0.3
			c-0.2,0.2-0.3,0.6-0.4,1l-0.8-0.2c0.1-0.6,0.3-1.1,0.7-1.4c0.3-0.3,0.8-0.5,1.3-0.5c0.4,0,0.7,0.1,1,0.3c0.3,0.2,0.5,0.4,0.7,0.7
			c0.2,0.3,0.2,0.6,0.2,1c0,0.3-0.1,0.6-0.2,0.9s-0.4,0.5-0.7,0.6c0.4,0.1,0.7,0.3,0.9,0.6c0.2,0.3,0.3,0.7,0.3,1.2
			c0,0.6-0.2,1.2-0.6,1.6c-0.4,0.5-0.9,0.7-1.6,0.7c-0.6,0-1-0.2-1.4-0.6C389.1,271.9,388.8,271.4,388.8,270.7z"/>
	</g>
	<g class="st2">
		<path class="st3" d="M386.8,286.7H386v-5.8c-0.2,0.2-0.4,0.4-0.8,0.6c-0.3,0.2-0.6,0.4-0.8,0.5v-0.9c0.4-0.2,0.8-0.5,1.2-0.9
			s0.6-0.7,0.7-1h0.5L386.8,286.7L386.8,286.7z"/>
		<path class="st3" d="M391.3,286.7v-1.8h-2.8v-0.8l2.9-4.8h0.6v4.8h0.9v0.8H392v1.8H391.3z M391.3,284.1v-3.4l-2,3.3h2V284.1z"/>
	</g>
	<g class="st2">
		<path class="st3" d="M386.8,300.7H386v-5.8c-0.2,0.2-0.4,0.4-0.8,0.6c-0.3,0.2-0.6,0.4-0.8,0.5v-0.9c0.4-0.2,0.8-0.5,1.2-0.9
			s0.6-0.7,0.7-1h0.5L386.8,300.7L386.8,300.7z"/>
		<path class="st3" d="M388.8,298.8l0.8-0.1c0.1,0.5,0.2,0.8,0.4,1.1c0.2,0.2,0.5,0.4,0.8,0.4c0.4,0,0.7-0.2,1-0.5s0.4-0.8,0.4-1.3
			s-0.1-0.9-0.4-1.2c-0.3-0.3-0.6-0.5-1-0.5c-0.3,0-0.5,0.1-0.7,0.2s-0.4,0.3-0.5,0.5l-0.7-0.1l0.6-3.8h3.2v0.9h-2.6l-0.3,2
			c0.4-0.3,0.8-0.5,1.2-0.5c0.6,0,1,0.2,1.4,0.7c0.4,0.4,0.6,1,0.6,1.7s-0.2,1.3-0.5,1.7c-0.4,0.6-1,0.9-1.7,0.9
			c-0.6,0-1.1-0.2-1.4-0.6C389,299.9,388.8,299.4,388.8,298.8z"/>
	</g>
	<g class="st2">
		<path class="st3" d="M386.8,313.7H386v-5.8c-0.2,0.2-0.4,0.4-0.8,0.6c-0.3,0.2-0.6,0.4-0.8,0.5v-0.9c0.4-0.2,0.8-0.5,1.2-0.9
			s0.6-0.7,0.7-1h0.5L386.8,313.7L386.8,313.7z"/>
		<path class="st3" d="M392.9,308.1l-0.8,0.1c-0.1-0.4-0.2-0.6-0.3-0.8c-0.2-0.3-0.5-0.4-0.8-0.4s-0.5,0.1-0.7,0.2
			c-0.3,0.2-0.4,0.5-0.6,0.9c-0.1,0.4-0.2,1-0.2,1.7c0.2-0.3,0.4-0.6,0.7-0.7c0.3-0.2,0.6-0.2,0.9-0.2c0.5,0,1,0.2,1.4,0.7
			c0.4,0.4,0.6,1,0.6,1.7c0,0.5-0.1,0.9-0.3,1.3s-0.4,0.7-0.7,0.9c-0.3,0.2-0.7,0.3-1,0.3c-0.7,0-1.2-0.3-1.6-0.8
			c-0.4-0.6-0.6-1.5-0.6-2.8c0-1.4,0.2-2.5,0.7-3.1c0.4-0.6,0.9-0.9,1.6-0.9c0.5,0,0.9,0.2,1.2,0.5
			C392.6,307.1,392.8,307.5,392.9,308.1z M389.7,311.3c0,0.3,0.1,0.6,0.2,0.9s0.3,0.5,0.5,0.7s0.4,0.2,0.7,0.2
			c0.3,0,0.6-0.2,0.9-0.5c0.2-0.3,0.4-0.7,0.4-1.3c0-0.5-0.1-0.9-0.4-1.2s-0.5-0.4-0.9-0.4s-0.7,0.1-0.9,0.4
			S389.7,310.8,389.7,311.3z"/>
	</g>
	<g class="st2">
		<path class="st3" d="M386.8,327.7H386v-5.8c-0.2,0.2-0.4,0.4-0.8,0.6c-0.3,0.2-0.6,0.4-0.8,0.5v-0.9c0.4-0.2,0.8-0.5,1.2-0.9
			s0.6-0.7,0.7-1h0.5L386.8,327.7L386.8,327.7z"/>
		<path class="st3" d="M388.8,321.2v-0.9h4.2v0.7c-0.4,0.5-0.8,1.2-1.2,2c-0.4,0.8-0.7,1.7-0.9,2.6c-0.2,0.6-0.3,1.3-0.3,2h-0.8
			c0-0.6,0.1-1.3,0.3-2.1c0.2-0.8,0.5-1.6,0.8-2.4c0.4-0.8,0.7-1.4,1.1-1.9L388.8,321.2L388.8,321.2z"/>
	</g>
	<g class="st2">
		<path class="st3" d="M386.8,341.7H386v-5.8c-0.2,0.2-0.4,0.4-0.8,0.6c-0.3,0.2-0.6,0.4-0.8,0.5v-0.9c0.4-0.2,0.8-0.5,1.2-0.9
			s0.6-0.7,0.7-1h0.5L386.8,341.7L386.8,341.7z"/>
		<path class="st3" d="M390,337.7c-0.3-0.1-0.6-0.3-0.7-0.6c-0.2-0.3-0.2-0.6-0.2-0.9c0-0.5,0.2-1,0.5-1.4s0.8-0.6,1.3-0.6
			c0.6,0,1,0.2,1.4,0.6c0.3,0.4,0.5,0.8,0.5,1.4c0,0.3-0.1,0.6-0.2,0.9c-0.2,0.3-0.4,0.5-0.7,0.6c0.4,0.1,0.7,0.4,0.9,0.7
			s0.3,0.7,0.3,1.2c0,0.6-0.2,1.2-0.6,1.6s-0.9,0.6-1.5,0.6s-1.2-0.2-1.5-0.7c-0.4-0.4-0.6-1-0.6-1.6c0-0.5,0.1-0.9,0.3-1.2
			C389.3,338,389.6,337.8,390,337.7z M389.6,339.6c0,0.3,0.1,0.5,0.2,0.8c0.1,0.2,0.3,0.4,0.5,0.6c0.2,0.1,0.4,0.2,0.7,0.2
			c0.4,0,0.7-0.1,0.9-0.4c0.2-0.3,0.4-0.6,0.4-1.1c0-0.4-0.1-0.8-0.4-1.1c-0.3-0.3-0.6-0.4-1-0.4s-0.7,0.1-0.9,0.4
			S389.6,339.1,389.6,339.6z M389.8,336.1c0,0.4,0.1,0.6,0.3,0.9c0.2,0.2,0.5,0.3,0.8,0.3s0.6-0.1,0.8-0.3c0.2-0.2,0.3-0.5,0.3-0.8
			s-0.1-0.6-0.3-0.8s-0.5-0.3-0.8-0.3s-0.6,0.1-0.8,0.3S389.8,335.8,389.8,336.1z"/>
	</g>
	<g class="st2">
		<path class="st3" d="M386.8,355.7H386v-5.8c-0.2,0.2-0.4,0.4-0.8,0.6c-0.3,0.2-0.6,0.4-0.8,0.5v-0.9c0.4-0.2,0.8-0.5,1.2-0.9
			s0.6-0.7,0.7-1h0.5L386.8,355.7L386.8,355.7z"/>
		<path class="st3" d="M388.9,354l0.8-0.1c0.1,0.4,0.2,0.7,0.4,0.9s0.4,0.3,0.7,0.3c0.2,0,0.5-0.1,0.6-0.2c0.2-0.1,0.3-0.3,0.5-0.5
			c0.1-0.2,0.2-0.5,0.3-0.9c0.1-0.4,0.1-0.7,0.1-1.1c0,0,0-0.1,0-0.2c-0.2,0.3-0.4,0.5-0.7,0.7c-0.3,0.2-0.6,0.3-0.9,0.3
			c-0.5,0-1-0.2-1.4-0.7c-0.4-0.4-0.6-1-0.6-1.8s0.2-1.4,0.6-1.8s0.9-0.7,1.5-0.7c0.4,0,0.8,0.1,1.2,0.4s0.6,0.6,0.8,1.1
			s0.3,1.2,0.3,2.1s-0.1,1.7-0.3,2.3c-0.2,0.6-0.4,1-0.8,1.3s-0.8,0.4-1.2,0.4c-0.5,0-0.9-0.2-1.2-0.5
			C389.2,355,389,354.6,388.9,354z M392.1,350.7c0-0.5-0.1-0.9-0.4-1.2c-0.2-0.3-0.5-0.5-0.9-0.5s-0.7,0.2-0.9,0.5
			c-0.3,0.3-0.4,0.8-0.4,1.3s0.1,0.9,0.4,1.2s0.6,0.4,0.9,0.4c0.4,0,0.7-0.1,0.9-0.4S392.1,351.2,392.1,350.7z"/>
	</g>
</g>
<g>
	<g class="st2">
		<path class="st3" d="M191.4,105.7h-0.8v-5.8c-0.2,0.2-0.4,0.4-0.8,0.6c-0.3,0.2-0.6,0.4-0.8,0.5v-0.9c0.4-0.2,0.8-0.5,1.2-0.9
			c0.3-0.3,0.6-0.7,0.7-1h0.5L191.4,105.7L191.4,105.7z"/>
	</g>
	<g class="st2">
		<path class="st3" d="M192.5,118.8v0.9h-4.3c0-0.2,0-0.4,0.1-0.6c0.1-0.3,0.3-0.7,0.5-1s0.6-0.7,1-1.1c0.7-0.7,1.2-1.2,1.4-1.6
			s0.4-0.8,0.4-1.1c0-0.4-0.1-0.7-0.3-0.9s-0.5-0.4-0.9-0.4s-0.7,0.1-0.9,0.4s-0.3,0.6-0.3,1.1l-0.8-0.1c0.1-0.7,0.3-1.2,0.6-1.6
			c0.4-0.4,0.9-0.5,1.5-0.5s1.1,0.2,1.5,0.6s0.5,0.9,0.5,1.5c0,0.3-0.1,0.6-0.2,0.9c-0.1,0.3-0.3,0.6-0.5,0.9s-0.7,0.8-1.2,1.3
			s-0.8,0.8-0.9,0.9c-0.1,0.2-0.2,0.3-0.3,0.5L192.5,118.8L192.5,118.8z"/>
	</g>
	<g class="st2">
		<path class="st3" d="M188.4,131.7l0.8-0.1c0.1,0.5,0.2,0.9,0.5,1.1c0.2,0.2,0.5,0.3,0.8,0.3c0.4,0,0.7-0.1,0.9-0.4
			c0.3-0.3,0.4-0.7,0.4-1.1c0-0.4-0.1-0.8-0.4-1c-0.2-0.3-0.5-0.4-0.9-0.4c-0.1,0-0.3,0-0.6,0.1l0.1-0.8c0.1,0,0.1,0,0.1,0
			c0.3,0,0.6-0.1,0.9-0.3c0.3-0.2,0.4-0.5,0.4-0.9c0-0.3-0.1-0.6-0.3-0.8s-0.5-0.3-0.8-0.3s-0.6,0.1-0.8,0.3s-0.3,0.6-0.4,1
			l-0.8-0.2c0.1-0.6,0.3-1.1,0.7-1.4c0.3-0.3,0.8-0.5,1.3-0.5c0.4,0,0.7,0.1,1,0.3s0.5,0.4,0.7,0.7s0.2,0.6,0.2,1
			c0,0.3-0.1,0.6-0.2,0.9c-0.1,0.3-0.4,0.5-0.7,0.6c0.4,0.1,0.7,0.3,0.9,0.6s0.3,0.7,0.3,1.2c0,0.6-0.2,1.2-0.6,1.6
			s-0.9,0.7-1.6,0.7c-0.6,0-1-0.2-1.4-0.6C188.6,132.9,188.4,132.4,188.4,131.7z"/>
	</g>
	<g class="st2">
		<path class="st3" d="M190.9,146.7v-1.8h-2.8v-0.8l2.9-4.8h0.6v4.8h0.9v0.8h-0.9v1.8H190.9z M190.9,144.1v-3.4l-2,3.3L190.9,144.1
			L190.9,144.1z"/>
	</g>
	<g class="st2">
		<path class="st3" d="M188.4,158.8l0.8-0.1c0.1,0.5,0.2,0.8,0.4,1.1c0.2,0.2,0.5,0.4,0.8,0.4c0.4,0,0.7-0.2,1-0.5s0.4-0.8,0.4-1.3
			s-0.1-0.9-0.4-1.2c-0.3-0.3-0.6-0.5-1-0.5c-0.3,0-0.5,0.1-0.7,0.2s-0.4,0.3-0.5,0.5l-0.7-0.1l0.6-3.8h3.2v0.9h-2.6l-0.3,2
			c0.4-0.3,0.8-0.5,1.2-0.5c0.6,0,1,0.2,1.4,0.7c0.4,0.4,0.6,1,0.6,1.7s-0.2,1.3-0.5,1.7c-0.4,0.6-1,0.9-1.7,0.9
			c-0.6,0-1.1-0.2-1.4-0.6C188.6,159.9,188.4,159.4,188.4,158.8z"/>
	</g>
	<g class="st2">
		<path class="st3" d="M192.5,169.1l-0.8,0.1c-0.1-0.4-0.2-0.6-0.3-0.8c-0.2-0.3-0.5-0.4-0.8-0.4s-0.5,0.1-0.7,0.2
			c-0.3,0.2-0.4,0.5-0.6,0.9c-0.1,0.4-0.2,1-0.2,1.7c0.2-0.3,0.4-0.6,0.7-0.7s0.6-0.2,0.9-0.2c0.5,0,1,0.2,1.4,0.7
			c0.4,0.4,0.6,1,0.6,1.7c0,0.5-0.1,0.9-0.3,1.3s-0.4,0.7-0.7,0.9s-0.7,0.3-1,0.3c-0.7,0-1.2-0.3-1.6-0.8s-0.6-1.5-0.6-2.8
			c0-1.4,0.2-2.5,0.7-3.1c0.4-0.6,0.9-0.9,1.6-0.9c0.5,0,0.9,0.2,1.2,0.5C192.2,168.1,192.4,168.5,192.5,169.1z M189.3,172.3
			c0,0.3,0.1,0.6,0.2,0.9c0.1,0.3,0.3,0.5,0.5,0.7s0.4,0.2,0.7,0.2s0.6-0.2,0.9-0.5c0.2-0.3,0.4-0.7,0.4-1.3c0-0.5-0.1-0.9-0.4-1.2
			s-0.5-0.4-0.9-0.4s-0.7,0.1-0.9,0.4S189.3,171.8,189.3,172.3z"/>
	</g>
	<g class="st2">
		<path class="st3" d="M188.4,182.2v-0.9h4.2v0.7c-0.4,0.5-0.8,1.2-1.2,2s-0.7,1.7-0.9,2.6c-0.2,0.6-0.3,1.3-0.3,2h-0.8
			c0-0.6,0.1-1.3,0.3-2.1s0.5-1.6,0.8-2.4c0.4-0.8,0.7-1.4,1.1-1.9L188.4,182.2L188.4,182.2z"/>
	</g>
	<g class="st2">
		<path class="st3" d="M189.6,198.7c-0.3-0.1-0.6-0.3-0.7-0.6c-0.2-0.3-0.2-0.6-0.2-0.9c0-0.5,0.2-1,0.5-1.4s0.8-0.6,1.3-0.6
			c0.6,0,1,0.2,1.4,0.6s0.5,0.8,0.5,1.4c0,0.3-0.1,0.6-0.2,0.9s-0.4,0.5-0.7,0.6c0.4,0.1,0.7,0.4,0.9,0.7s0.3,0.7,0.3,1.2
			c0,0.6-0.2,1.2-0.6,1.6s-0.9,0.6-1.5,0.6s-1.2-0.2-1.5-0.7c-0.4-0.4-0.6-1-0.6-1.6c0-0.5,0.1-0.9,0.3-1.2
			C188.9,199,189.2,198.8,189.6,198.7z M189.2,200.6c0,0.3,0.1,0.5,0.2,0.8c0.1,0.2,0.3,0.4,0.5,0.6s0.4,0.2,0.7,0.2
			c0.4,0,0.7-0.1,0.9-0.4s0.4-0.6,0.4-1.1c0-0.4-0.1-0.8-0.4-1.1c-0.3-0.3-0.6-0.4-1-0.4s-0.7,0.1-0.9,0.4S189.2,200.1,189.2,200.6z
			 M189.4,197.1c0,0.4,0.1,0.6,0.3,0.9c0.2,0.2,0.5,0.3,0.8,0.3s0.6-0.1,0.8-0.3s0.3-0.5,0.3-0.8s-0.1-0.6-0.3-0.8s-0.5-0.3-0.8-0.3
			s-0.6,0.1-0.8,0.3C189.5,196.6,189.4,196.8,189.4,197.1z"/>
	</g>
	<g class="st2">
		<path class="st3" d="M188.5,215l0.8-0.1c0.1,0.4,0.2,0.7,0.4,0.9s0.4,0.3,0.7,0.3c0.2,0,0.5-0.1,0.6-0.2c0.2-0.1,0.3-0.3,0.5-0.5
			c0.1-0.2,0.2-0.5,0.3-0.9s0.1-0.7,0.1-1.1c0,0,0-0.1,0-0.2c-0.2,0.3-0.4,0.5-0.6,0.7c-0.3,0.2-0.6,0.3-0.9,0.3
			c-0.5,0-1-0.2-1.4-0.7c-0.4-0.4-0.6-1-0.6-1.8s0.2-1.4,0.6-1.8c0.4-0.4,0.9-0.7,1.5-0.7c0.4,0,0.8,0.1,1.2,0.4s0.6,0.6,0.8,1.1
			s0.3,1.2,0.3,2.1s-0.1,1.7-0.3,2.3s-0.4,1-0.8,1.3c-0.4,0.3-0.8,0.4-1.2,0.4c-0.5,0-0.9-0.2-1.2-0.5
			C188.8,216,188.6,215.6,188.5,215z M191.7,211.7c0-0.5-0.1-0.9-0.4-1.2c-0.3-0.3-0.5-0.5-0.9-0.5s-0.7,0.2-0.9,0.5
			c-0.3,0.3-0.4,0.8-0.4,1.3s0.1,0.9,0.4,1.2c0.3,0.3,0.6,0.4,0.9,0.4c0.4,0,0.7-0.1,0.9-0.4S191.7,212.2,191.7,211.7z"/>
	</g>
	<g class="st2">
		<path class="st3" d="M188.8,229.7H188v-5.8c-0.2,0.2-0.4,0.4-0.8,0.6c-0.3,0.2-0.6,0.4-0.8,0.5v-0.9c0.4-0.2,0.8-0.5,1.2-0.9
			c0.3-0.3,0.6-0.7,0.7-1h0.5L188.8,229.7L188.8,229.7z"/>
		<path class="st3" d="M190.8,226c0-0.9,0.1-1.6,0.2-2.1c0.2-0.5,0.4-0.9,0.7-1.2s0.7-0.4,1.2-0.4c0.3,0,0.7,0.1,0.9,0.2
			c0.3,0.2,0.5,0.4,0.6,0.7c0.2,0.3,0.3,0.7,0.4,1.1c0.1,0.4,0.1,1,0.1,1.8c0,0.9-0.1,1.6-0.2,2.1c-0.2,0.5-0.4,0.9-0.7,1.2
			s-0.7,0.4-1.2,0.4c-0.6,0-1.1-0.3-1.5-0.8C191,228.4,190.8,227.4,190.8,226z M191.6,226c0,1.2,0.1,2,0.4,2.4s0.6,0.6,0.9,0.6
			s0.7-0.2,0.9-0.6s0.4-1.2,0.4-2.4s-0.1-2-0.4-2.4c-0.2-0.4-0.6-0.6-0.9-0.6c-0.4,0-0.7,0.2-0.9,0.5
			C191.7,224,191.6,224.8,191.6,226z"/>
	</g>
	<g class="st2">
		<path class="st3" d="M189.6,243.7h-0.8v-5.8c-0.2,0.2-0.4,0.4-0.8,0.6c-0.3,0.2-0.6,0.4-0.8,0.5v-0.9c0.4-0.2,0.8-0.5,1.2-0.9
			c0.3-0.3,0.6-0.7,0.7-1h0.5L189.6,243.7L189.6,243.7z"/>
	</g>
	<g class="st2">
		<path class="st3" d="M193.1,243.7h-0.8v-5.8c-0.2,0.2-0.4,0.4-0.8,0.6c-0.3,0.2-0.6,0.4-0.8,0.5v-0.9c0.4-0.2,0.8-0.5,1.2-0.9
			c0.3-0.3,0.6-0.7,0.7-1h0.5L193.1,243.7L193.1,243.7z"/>
	</g>
	<g class="st2">
		<path class="st3" d="M188.8,257.7H188v-5.8c-0.2,0.2-0.4,0.4-0.8,0.6c-0.3,0.2-0.6,0.4-0.8,0.5v-0.9c0.4-0.2,0.8-0.5,1.2-0.9
			c0.3-0.3,0.6-0.7,0.7-1h0.5L188.8,257.7L188.8,257.7z"/>
		<path class="st3" d="M194.9,256.8v0.9h-4.3c0-0.2,0-0.4,0.1-0.6c0.1-0.3,0.3-0.7,0.5-1s0.6-0.7,1-1.1c0.7-0.7,1.2-1.2,1.4-1.6
			s0.4-0.8,0.4-1.1c0-0.4-0.1-0.7-0.3-0.9s-0.5-0.4-0.9-0.4s-0.7,0.1-0.9,0.4s-0.3,0.6-0.3,1.1l-0.8-0.1c0.1-0.7,0.3-1.2,0.6-1.6
			c0.4-0.4,0.9-0.5,1.5-0.5s1.1,0.2,1.5,0.6s0.5,0.9,0.5,1.5c0,0.3-0.1,0.6-0.2,0.9c-0.1,0.3-0.3,0.6-0.5,0.9s-0.7,0.8-1.2,1.3
			s-0.8,0.8-0.9,0.9c-0.1,0.2-0.2,0.3-0.3,0.5L194.9,256.8L194.9,256.8z"/>
	</g>
	<g class="st2">
		<path class="st3" d="M188.8,271.7H188v-5.8c-0.2,0.2-0.4,0.4-0.8,0.6c-0.3,0.2-0.6,0.4-0.8,0.5v-0.9c0.4-0.2,0.8-0.5,1.2-0.9
			c0.3-0.3,0.6-0.7,0.7-1h0.5L188.8,271.7L188.8,271.7z"/>
		<path class="st3" d="M190.8,269.7l0.8-0.1c0.1,0.5,0.2,0.9,0.5,1.1c0.2,0.2,0.5,0.3,0.8,0.3c0.4,0,0.7-0.1,0.9-0.4
			c0.3-0.3,0.4-0.7,0.4-1.1s-0.1-0.8-0.4-1c-0.2-0.3-0.5-0.4-0.9-0.4c-0.1,0-0.3,0-0.6,0.1l0.1-0.8c0.1,0,0.1,0,0.1,0
			c0.3,0,0.6-0.1,0.9-0.3c0.3-0.2,0.4-0.5,0.4-0.9c0-0.3-0.1-0.6-0.3-0.8c-0.2-0.2-0.5-0.3-0.8-0.3s-0.6,0.1-0.8,0.3
			c-0.2,0.2-0.3,0.6-0.4,1l-0.8-0.2c0.1-0.6,0.3-1.1,0.7-1.4c0.3-0.3,0.8-0.5,1.3-0.5c0.4,0,0.7,0.1,1,0.3c0.3,0.2,0.5,0.4,0.7,0.7
			c0.2,0.3,0.2,0.6,0.2,1c0,0.3-0.1,0.6-0.2,0.9c-0.1,0.3-0.4,0.5-0.7,0.6c0.4,0.1,0.7,0.3,0.9,0.6c0.2,0.3,0.3,0.7,0.3,1.2
			c0,0.6-0.2,1.2-0.6,1.6s-0.9,0.7-1.6,0.7c-0.6,0-1-0.2-1.4-0.6C191.1,270.9,190.8,270.4,190.8,269.7z"/>
	</g>
	<g class="st2">
		<path class="st3" d="M188.8,285.7H188v-5.8c-0.2,0.2-0.4,0.4-0.8,0.6c-0.3,0.2-0.6,0.4-0.8,0.5v-0.9c0.4-0.2,0.8-0.5,1.2-0.9
			c0.3-0.3,0.6-0.7,0.7-1h0.5L188.8,285.7L188.8,285.7z"/>
		<path class="st3" d="M193.3,285.7v-1.8h-2.8v-0.8l2.9-4.8h0.6v4.8h0.9v0.8H194v1.8H193.3z M193.3,283.1v-3.4l-2,3.3h2V283.1z"/>
	</g>
	<g class="st2">
		<path class="st3" d="M188.8,299.7H188v-5.8c-0.2,0.2-0.4,0.4-0.8,0.6c-0.3,0.2-0.6,0.4-0.8,0.5v-0.9c0.4-0.2,0.8-0.5,1.2-0.9
			c0.3-0.3,0.6-0.7,0.7-1h0.5L188.8,299.7L188.8,299.7z"/>
		<path class="st3" d="M190.8,297.8l0.8-0.1c0.1,0.5,0.2,0.8,0.4,1.1c0.2,0.2,0.5,0.4,0.8,0.4c0.4,0,0.7-0.2,1-0.5s0.4-0.8,0.4-1.3
			s-0.1-0.9-0.4-1.2c-0.3-0.3-0.6-0.5-1-0.5c-0.3,0-0.5,0.1-0.7,0.2s-0.4,0.3-0.5,0.5l-0.7-0.1l0.6-3.8h3.2v0.9h-2.6l-0.3,2
			c0.4-0.3,0.8-0.5,1.2-0.5c0.6,0,1,0.2,1.4,0.7c0.4,0.4,0.6,1,0.6,1.7s-0.2,1.3-0.5,1.7c-0.4,0.6-1,0.9-1.7,0.9
			c-0.6,0-1.1-0.2-1.4-0.6C191,298.9,190.8,298.4,190.8,297.8z"/>
	</g>
	<g class="st2">
		<path class="st3" d="M188.8,312.7H188v-5.8c-0.2,0.2-0.4,0.4-0.8,0.6c-0.3,0.2-0.6,0.4-0.8,0.5v-0.9c0.4-0.2,0.8-0.5,1.2-0.9
			c0.3-0.3,0.6-0.7,0.7-1h0.5L188.8,312.7L188.8,312.7z"/>
		<path class="st3" d="M194.9,307.1l-0.8,0.1c-0.1-0.4-0.2-0.6-0.3-0.8c-0.2-0.3-0.5-0.4-0.8-0.4s-0.5,0.1-0.7,0.2
			c-0.3,0.2-0.4,0.5-0.6,0.9c-0.1,0.4-0.2,1-0.2,1.7c0.2-0.3,0.4-0.6,0.7-0.7s0.6-0.2,0.9-0.2c0.5,0,1,0.2,1.4,0.7
			c0.4,0.4,0.6,1,0.6,1.7c0,0.5-0.1,0.9-0.3,1.3s-0.4,0.7-0.7,0.9c-0.3,0.2-0.7,0.3-1,0.3c-0.7,0-1.2-0.3-1.6-0.8s-0.6-1.5-0.6-2.8
			c0-1.4,0.2-2.5,0.7-3.1c0.4-0.6,0.9-0.9,1.6-0.9c0.5,0,0.9,0.2,1.2,0.5C194.6,306.1,194.8,306.5,194.9,307.1z M191.7,310.3
			c0,0.3,0.1,0.6,0.2,0.9c0.1,0.3,0.3,0.5,0.5,0.7s0.4,0.2,0.7,0.2s0.6-0.2,0.9-0.5c0.2-0.3,0.4-0.7,0.4-1.3c0-0.5-0.1-0.9-0.4-1.2
			s-0.5-0.4-0.9-0.4s-0.7,0.1-0.9,0.4S191.7,309.8,191.7,310.3z"/>
	</g>
	<g class="st2">
		<path class="st3" d="M188.8,326.7H188v-5.8c-0.2,0.2-0.4,0.4-0.8,0.6c-0.3,0.2-0.6,0.4-0.8,0.5v-0.9c0.4-0.2,0.8-0.5,1.2-0.9
			c0.3-0.3,0.6-0.7,0.7-1h0.5L188.8,326.7L188.8,326.7z"/>
		<path class="st3" d="M190.8,320.2v-0.9h4.2v0.7c-0.4,0.5-0.8,1.2-1.2,2s-0.7,1.7-0.9,2.6c-0.2,0.6-0.3,1.3-0.3,2h-0.8
			c0-0.6,0.1-1.3,0.3-2.1s0.5-1.6,0.8-2.4c0.4-0.8,0.7-1.4,1.1-1.9L190.8,320.2L190.8,320.2z"/>
	</g>
	<g class="st2">
		<path class="st3" d="M188.8,340.7H188v-5.8c-0.2,0.2-0.4,0.4-0.8,0.6c-0.3,0.2-0.6,0.4-0.8,0.5v-0.9c0.4-0.2,0.8-0.5,1.2-0.9
			c0.3-0.3,0.6-0.7,0.7-1h0.5L188.8,340.7L188.8,340.7z"/>
		<path class="st3" d="M192,336.7c-0.3-0.1-0.6-0.3-0.7-0.6c-0.2-0.3-0.2-0.6-0.2-0.9c0-0.5,0.2-1,0.5-1.4s0.8-0.6,1.3-0.6
			c0.6,0,1,0.2,1.4,0.6c0.3,0.4,0.5,0.8,0.5,1.4c0,0.3-0.1,0.6-0.2,0.9s-0.4,0.5-0.7,0.6c0.4,0.1,0.7,0.4,0.9,0.7s0.3,0.7,0.3,1.2
			c0,0.6-0.2,1.2-0.6,1.6s-0.9,0.6-1.5,0.6s-1.2-0.2-1.5-0.7c-0.4-0.4-0.6-1-0.6-1.6c0-0.5,0.1-0.9,0.3-1.2
			C191.3,337,191.6,336.8,192,336.7z M191.6,338.6c0,0.3,0.1,0.5,0.2,0.8c0.1,0.2,0.3,0.4,0.5,0.6c0.2,0.1,0.4,0.2,0.7,0.2
			c0.4,0,0.7-0.1,0.9-0.4s0.4-0.6,0.4-1.1c0-0.4-0.1-0.8-0.4-1.1c-0.3-0.3-0.6-0.4-1-0.4s-0.7,0.1-0.9,0.4S191.6,338.1,191.6,338.6z
			 M191.8,335.1c0,0.4,0.1,0.6,0.3,0.9c0.2,0.2,0.5,0.3,0.8,0.3s0.6-0.1,0.8-0.3c0.2-0.2,0.3-0.5,0.3-0.8s-0.1-0.6-0.3-0.8
			s-0.5-0.3-0.8-0.3s-0.6,0.1-0.8,0.3S191.8,334.8,191.8,335.1z"/>
	</g>
	<g class="st2">
		<path class="st3" d="M188.8,354.7H188v-5.8c-0.2,0.2-0.4,0.4-0.8,0.6c-0.3,0.2-0.6,0.4-0.8,0.5v-0.9c0.4-0.2,0.8-0.5,1.2-0.9
			c0.3-0.3,0.6-0.7,0.7-1h0.5L188.8,354.7L188.8,354.7z"/>
		<path class="st3" d="M190.9,353l0.8-0.1c0.1,0.4,0.2,0.7,0.4,0.9s0.4,0.3,0.7,0.3c0.2,0,0.5-0.1,0.6-0.2c0.2-0.1,0.3-0.3,0.5-0.5
			c0.1-0.2,0.2-0.5,0.3-0.9s0.1-0.7,0.1-1.1c0,0,0-0.1,0-0.2c-0.2,0.3-0.4,0.5-0.6,0.7c-0.3,0.2-0.6,0.3-0.9,0.3
			c-0.5,0-1-0.2-1.4-0.7c-0.4-0.4-0.6-1-0.6-1.8s0.2-1.4,0.6-1.8s0.9-0.7,1.5-0.7c0.4,0,0.8,0.1,1.2,0.4s0.6,0.6,0.8,1.1
			s0.3,1.2,0.3,2.1s-0.1,1.7-0.3,2.3c-0.2,0.6-0.4,1-0.8,1.3c-0.4,0.3-0.8,0.4-1.2,0.4c-0.5,0-0.9-0.2-1.2-0.5
			C191.2,354,191,353.6,190.9,353z M194.1,349.7c0-0.5-0.1-0.9-0.4-1.2c-0.2-0.3-0.5-0.5-0.9-0.5s-0.7,0.2-0.9,0.5
			c-0.3,0.3-0.4,0.8-0.4,1.3s0.1,0.9,0.4,1.2s0.6,0.4,0.9,0.4c0.4,0,0.7-0.1,0.9-0.4S194.1,350.2,194.1,349.7z"/>
	</g>
</g>
<g class="st2">
	<path class="st3" d="M192.4,90.1l0.9,0.2c-0.2,0.8-0.5,1.4-1,1.8s-1,0.6-1.7,0.6s-1.3-0.2-1.7-0.5s-0.8-0.8-1-1.4s-0.3-1.3-0.3-2
		c0-0.8,0.1-1.4,0.4-2c0.3-0.6,0.6-1,1.1-1.3s1-0.4,1.6-0.4s1.2,0.2,1.6,0.6c0.4,0.4,0.7,0.9,0.9,1.6l-0.8,0.2
		c-0.1-0.5-0.4-0.9-0.7-1.2c-0.3-0.2-0.6-0.4-1.1-0.4s-0.9,0.1-1.2,0.4s-0.6,0.6-0.7,1.1c-0.1,0.5-0.2,0.9-0.2,1.4
		c0,0.6,0.1,1.2,0.2,1.7c0.2,0.5,0.4,0.8,0.7,1.1c0.3,0.2,0.7,0.3,1.1,0.3c0.5,0,0.9-0.2,1.2-0.5S192.3,90.7,192.4,90.1z"/>
</g>
<g>
	<g class="st2">
		<path class="st3" d="M389.4,90.1l0.9,0.2c-0.2,0.8-0.5,1.4-1,1.8s-1,0.6-1.7,0.6s-1.3-0.2-1.7-0.5c-0.4-0.3-0.8-0.8-1-1.4
			s-0.3-1.3-0.3-2c0-0.8,0.1-1.4,0.4-2s0.6-1,1.1-1.3s1-0.4,1.6-0.4s1.2,0.2,1.6,0.6s0.7,0.9,0.9,1.6l-0.8,0.2
			c-0.1-0.5-0.4-0.9-0.7-1.2c-0.3-0.2-0.6-0.4-1.1-0.4s-0.9,0.1-1.2,0.4c-0.3,0.3-0.6,0.6-0.7,1.1s-0.2,0.9-0.2,1.4
			c0,0.6,0.1,1.2,0.2,1.7c0.2,0.5,0.4,0.8,0.7,1.1c0.3,0.3,0.7,0.3,1.1,0.3c0.5,0,0.9-0.2,1.2-0.5S389.3,90.7,389.4,90.1z"/>
	</g>
</g>
<g class="st2">
	<path class="st3" d="M193.4,448.7h-0.8v-5.8c-0.2,0.2-0.4,0.4-0.8,0.6c-0.3,0.2-0.6,0.4-0.8,0.5v-0.9c0.4-0.2,0.8-0.5,1.2-0.9
		c0.3-0.3,0.6-0.7,0.7-1h0.5L193.4,448.7L193.4,448.7z"/>
</g>
<g class="st2">
	<path class="st3" d="M194.5,461.8v0.9h-4.3c0-0.2,0-0.4,0.1-0.6c0.1-0.3,0.3-0.7,0.5-1s0.6-0.7,1-1.1c0.7-0.7,1.2-1.2,1.4-1.6
		s0.4-0.8,0.4-1.1c0-0.4-0.1-0.7-0.3-0.9s-0.5-0.4-0.9-0.4s-0.7,0.1-0.9,0.4s-0.3,0.6-0.3,1.1l-0.8-0.1c0.1-0.7,0.3-1.2,0.6-1.6
		s0.9-0.5,1.5-0.5s1.1,0.2,1.5,0.6s0.5,0.9,0.5,1.5c0,0.3-0.1,0.6-0.2,0.9c-0.1,0.3-0.3,0.6-0.5,0.9s-0.7,0.8-1.2,1.3
		s-0.8,0.8-0.9,0.9c-0.1,0.2-0.2,0.3-0.3,0.5L194.5,461.8L194.5,461.8z"/>
</g>
<g class="st2">
	<path class="st3" d="M190.4,474.7l0.8-0.1c0.1,0.5,0.2,0.9,0.5,1.1c0.2,0.2,0.5,0.3,0.8,0.3c0.4,0,0.7-0.1,0.9-0.4
		c0.3-0.3,0.4-0.7,0.4-1.1s-0.1-0.8-0.4-1c-0.2-0.3-0.5-0.4-0.9-0.4c-0.1,0-0.3,0-0.6,0.1l0.1-0.8c0.1,0,0.1,0,0.1,0
		c0.3,0,0.6-0.1,0.9-0.3c0.3-0.2,0.4-0.5,0.4-0.9c0-0.3-0.1-0.6-0.3-0.8s-0.5-0.3-0.8-0.3s-0.6,0.1-0.8,0.3s-0.3,0.6-0.4,1l-0.8-0.2
		c0.1-0.6,0.3-1.1,0.7-1.4c0.3-0.3,0.8-0.5,1.3-0.5c0.4,0,0.7,0.1,1,0.3s0.5,0.4,0.7,0.7s0.2,0.6,0.2,1c0,0.3-0.1,0.6-0.2,0.9
		c-0.1,0.3-0.4,0.5-0.7,0.6c0.4,0.1,0.7,0.3,0.9,0.6s0.3,0.7,0.3,1.2c0,0.6-0.2,1.2-0.6,1.6c-0.4,0.5-0.9,0.7-1.6,0.7
		c-0.6,0-1-0.2-1.4-0.6C190.6,475.9,190.4,475.4,190.4,474.7z"/>
</g>
<g class="st2">
	<path class="st3" d="M192.9,489.7v-1.8h-2.8v-0.8l2.9-4.8h0.6v4.8h0.9v0.8h-0.9v1.8H192.9z M192.9,487.1v-3.4l-2,3.3h2V487.1z"/>
</g>
<g class="st2">
	<path class="st3" d="M190.4,501.8l0.8-0.1c0.1,0.5,0.2,0.8,0.4,1.1s0.5,0.4,0.8,0.4c0.4,0,0.7-0.2,1-0.5s0.4-0.8,0.4-1.3
		s-0.1-0.9-0.4-1.2c-0.3-0.3-0.6-0.5-1-0.5c-0.3,0-0.5,0.1-0.7,0.2s-0.4,0.3-0.5,0.5l-0.7-0.1l0.6-3.8h3.2v0.9h-2.6l-0.3,2
		c0.4-0.3,0.8-0.5,1.2-0.5c0.6,0,1,0.2,1.4,0.7s0.6,1,0.6,1.7s-0.2,1.3-0.5,1.7c-0.4,0.6-1,0.9-1.7,0.9c-0.6,0-1.1-0.2-1.4-0.6
		C190.6,502.9,190.4,502.4,190.4,501.8z"/>
</g>
<g class="st2">
	<path class="st3" d="M194.5,512.1l-0.8,0.1c-0.1-0.4-0.2-0.6-0.3-0.8c-0.2-0.3-0.5-0.4-0.8-0.4s-0.5,0.1-0.7,0.2
		c-0.3,0.2-0.4,0.5-0.6,0.9c-0.1,0.4-0.2,1-0.2,1.7c0.2-0.3,0.4-0.6,0.7-0.7s0.6-0.2,0.9-0.2c0.5,0,1,0.2,1.4,0.7
		c0.4,0.4,0.6,1,0.6,1.7c0,0.5-0.1,0.9-0.3,1.3s-0.4,0.7-0.7,0.9s-0.7,0.3-1,0.3c-0.7,0-1.2-0.3-1.6-0.8c-0.4-0.6-0.6-1.5-0.6-2.8
		c0-1.4,0.2-2.5,0.7-3.1c0.4-0.6,0.9-0.9,1.6-0.9c0.5,0,0.9,0.2,1.2,0.5C194.2,511.1,194.4,511.5,194.5,512.1z M191.3,515.3
		c0,0.3,0.1,0.6,0.2,0.9c0.1,0.3,0.3,0.5,0.5,0.7c0.2,0.1,0.4,0.2,0.7,0.2s0.6-0.2,0.9-0.5s0.4-0.7,0.4-1.3c0-0.5-0.1-0.9-0.4-1.2
		c-0.2-0.3-0.5-0.4-0.9-0.4s-0.7,0.1-0.9,0.4C191.4,514.4,191.3,514.8,191.3,515.3z"/>
</g>
<g class="st2">
	<path class="st3" d="M190.4,525.2v-0.9h4.2v0.7c-0.4,0.5-0.8,1.2-1.2,2s-0.7,1.7-0.9,2.6c-0.2,0.6-0.3,1.3-0.3,2h-0.8
		c0-0.6,0.1-1.3,0.3-2.1s0.5-1.6,0.8-2.4c0.4-0.8,0.7-1.4,1.1-1.9L190.4,525.2L190.4,525.2z"/>
</g>
<g class="st2">
	<path class="st3" d="M191.6,541.7c-0.3-0.1-0.6-0.3-0.7-0.6c-0.2-0.3-0.2-0.6-0.2-0.9c0-0.5,0.2-1,0.5-1.4s0.8-0.6,1.3-0.6
		c0.6,0,1,0.2,1.4,0.6c0.3,0.4,0.5,0.8,0.5,1.4c0,0.3-0.1,0.6-0.2,0.9s-0.4,0.5-0.7,0.6c0.4,0.1,0.7,0.4,0.9,0.7s0.3,0.7,0.3,1.2
		c0,0.6-0.2,1.2-0.6,1.6s-0.9,0.6-1.5,0.6s-1.2-0.2-1.5-0.7c-0.4-0.4-0.6-1-0.6-1.6c0-0.5,0.1-0.9,0.3-1.2
		C190.9,542,191.2,541.8,191.6,541.7z M191.2,543.6c0,0.3,0.1,0.5,0.2,0.8c0.1,0.2,0.3,0.4,0.5,0.6c0.2,0.1,0.4,0.2,0.7,0.2
		c0.4,0,0.7-0.1,0.9-0.4s0.4-0.6,0.4-1.1c0-0.4-0.1-0.8-0.4-1.1c-0.3-0.3-0.6-0.4-1-0.4s-0.7,0.1-0.9,0.4S191.2,543.1,191.2,543.6z
		 M191.4,540.1c0,0.4,0.1,0.6,0.3,0.9c0.2,0.2,0.5,0.3,0.8,0.3s0.6-0.1,0.8-0.3s0.3-0.5,0.3-0.8s-0.1-0.6-0.3-0.8s-0.5-0.3-0.8-0.3
		s-0.6,0.1-0.8,0.3S191.4,539.8,191.4,540.1z"/>
</g>
<g class="st2">
	<path class="st3" d="M190.5,558l0.8-0.1c0.1,0.4,0.2,0.7,0.4,0.9s0.4,0.3,0.7,0.3c0.2,0,0.5-0.1,0.6-0.2c0.2-0.1,0.3-0.3,0.5-0.5
		c0.1-0.2,0.2-0.5,0.3-0.9s0.1-0.7,0.1-1.1c0,0,0-0.1,0-0.2c-0.2,0.3-0.4,0.5-0.6,0.7c-0.3,0.2-0.6,0.3-0.9,0.3
		c-0.5,0-1-0.2-1.4-0.7c-0.4-0.4-0.6-1-0.6-1.8s0.2-1.4,0.6-1.8s0.9-0.7,1.5-0.7c0.4,0,0.8,0.1,1.2,0.4s0.6,0.6,0.8,1.1
		s0.3,1.2,0.3,2.1c0,0.9-0.1,1.7-0.3,2.3s-0.4,1-0.8,1.3c-0.4,0.3-0.8,0.4-1.2,0.4c-0.5,0-0.9-0.2-1.2-0.5
		C190.8,559,190.6,558.6,190.5,558z M193.7,554.7c0-0.5-0.1-0.9-0.4-1.2c-0.2-0.3-0.5-0.5-0.9-0.5s-0.7,0.2-0.9,0.5
		c-0.3,0.3-0.4,0.8-0.4,1.3s0.1,0.9,0.4,1.2s0.6,0.4,0.9,0.4c0.4,0,0.7-0.1,0.9-0.4S193.7,555.2,193.7,554.7z"/>
</g>
<g class="st2">
	<path class="st3" d="M391.4,448.7h-0.8v-5.8c-0.2,0.2-0.4,0.4-0.8,0.6c-0.3,0.2-0.6,0.4-0.8,0.5v-0.9c0.4-0.2,0.8-0.5,1.2-0.9
		c0.3-0.3,0.6-0.7,0.7-1h0.5L391.4,448.7L391.4,448.7z"/>
</g>
<g class="st2">
	<path class="st3" d="M392.5,461.8v0.9h-4.3c0-0.2,0-0.4,0.1-0.6c0.1-0.3,0.3-0.7,0.5-1s0.6-0.7,1-1.1c0.7-0.7,1.2-1.2,1.4-1.6
		c0.2-0.4,0.4-0.8,0.4-1.1c0-0.4-0.1-0.7-0.3-0.9s-0.5-0.4-0.9-0.4s-0.7,0.1-0.9,0.4c-0.2,0.3-0.3,0.6-0.3,1.1l-0.8-0.1
		c0.1-0.7,0.3-1.2,0.6-1.6s0.9-0.5,1.5-0.5s1.1,0.2,1.5,0.6s0.5,0.9,0.5,1.5c0,0.3-0.1,0.6-0.2,0.9s-0.3,0.6-0.5,0.9
		s-0.7,0.8-1.2,1.3s-0.8,0.8-0.9,0.9c-0.1,0.2-0.2,0.3-0.3,0.5L392.5,461.8L392.5,461.8z"/>
</g>
<g class="st2">
	<path class="st3" d="M388.4,474.7l0.8-0.1c0.1,0.5,0.2,0.9,0.5,1.1c0.2,0.2,0.5,0.3,0.8,0.3c0.4,0,0.7-0.1,0.9-0.4
		c0.3-0.3,0.4-0.7,0.4-1.1s-0.1-0.8-0.4-1c-0.2-0.3-0.5-0.4-0.9-0.4c-0.1,0-0.3,0-0.6,0.1l0.1-0.8c0.1,0,0.1,0,0.1,0
		c0.3,0,0.6-0.1,0.9-0.3s0.4-0.5,0.4-0.9c0-0.3-0.1-0.6-0.3-0.8s-0.5-0.3-0.8-0.3s-0.6,0.1-0.8,0.3s-0.3,0.6-0.4,1l-0.8-0.2
		c0.1-0.6,0.3-1.1,0.7-1.4s0.8-0.5,1.3-0.5c0.4,0,0.7,0.1,1,0.3s0.5,0.4,0.7,0.7s0.2,0.6,0.2,1c0,0.3-0.1,0.6-0.2,0.9
		c-0.2,0.3-0.4,0.5-0.7,0.6c0.4,0.1,0.7,0.3,0.9,0.6c0.2,0.3,0.3,0.7,0.3,1.2c0,0.6-0.2,1.2-0.6,1.6c-0.4,0.5-0.9,0.7-1.6,0.7
		c-0.6,0-1-0.2-1.4-0.6C388.6,475.9,388.4,475.4,388.4,474.7z"/>
</g>
<g class="st2">
	<path class="st3" d="M390.9,489.7v-1.8h-2.8v-0.8l2.9-4.8h0.6v4.8h0.9v0.8h-0.9v1.8H390.9z M390.9,487.1v-3.4l-2,3.3h2V487.1z"/>
</g>
<g class="st2">
	<path class="st3" d="M388.4,501.8l0.8-0.1c0.1,0.5,0.2,0.8,0.4,1.1s0.5,0.4,0.8,0.4c0.4,0,0.7-0.2,1-0.5s0.4-0.8,0.4-1.3
		s-0.1-0.9-0.4-1.2s-0.6-0.5-1-0.5c-0.3,0-0.5,0.1-0.7,0.2s-0.4,0.3-0.5,0.5l-0.7-0.1l0.6-3.8h3.2v0.9h-2.6l-0.3,2
		c0.4-0.3,0.8-0.5,1.2-0.5c0.6,0,1,0.2,1.4,0.7c0.4,0.4,0.6,1,0.6,1.7s-0.2,1.3-0.5,1.7c-0.4,0.6-1,0.9-1.7,0.9
		c-0.6,0-1.1-0.2-1.4-0.6C388.6,502.9,388.4,502.4,388.4,501.8z"/>
</g>
<g class="st2">
	<path class="st3" d="M392.5,512.1l-0.8,0.1c-0.1-0.4-0.2-0.6-0.3-0.8c-0.2-0.3-0.5-0.4-0.8-0.4s-0.5,0.1-0.7,0.2
		c-0.3,0.2-0.4,0.5-0.6,0.9c-0.1,0.4-0.2,1-0.2,1.7c0.2-0.3,0.4-0.6,0.7-0.7s0.6-0.2,0.9-0.2c0.5,0,1,0.2,1.4,0.7
		c0.4,0.4,0.6,1,0.6,1.7c0,0.5-0.1,0.9-0.3,1.3c-0.2,0.4-0.4,0.7-0.7,0.9c-0.3,0.2-0.7,0.3-1,0.3c-0.7,0-1.2-0.3-1.6-0.8
		c-0.4-0.6-0.6-1.5-0.6-2.8c0-1.4,0.2-2.5,0.7-3.1c0.4-0.6,0.9-0.9,1.6-0.9c0.5,0,0.9,0.2,1.2,0.5
		C392.2,511.1,392.4,511.5,392.5,512.1z M389.3,515.3c0,0.3,0.1,0.6,0.2,0.9c0.1,0.3,0.3,0.5,0.5,0.7c0.2,0.1,0.4,0.2,0.7,0.2
		c0.3,0,0.6-0.2,0.9-0.5s0.4-0.7,0.4-1.3c0-0.5-0.1-0.9-0.4-1.2c-0.2-0.3-0.5-0.4-0.9-0.4s-0.7,0.1-0.9,0.4
		C389.4,514.4,389.3,514.8,389.3,515.3z"/>
</g>
<g class="st2">
	<path class="st3" d="M388.4,525.2v-0.9h4.2v0.7c-0.4,0.5-0.8,1.2-1.2,2c-0.4,0.8-0.7,1.7-0.9,2.6c-0.2,0.6-0.3,1.3-0.3,2h-0.8
		c0-0.6,0.1-1.3,0.3-2.1s0.5-1.6,0.8-2.4c0.4-0.8,0.7-1.4,1.1-1.9L388.4,525.2L388.4,525.2z"/>
</g>
<g class="st2">
	<path class="st3" d="M389.6,541.7c-0.3-0.1-0.6-0.3-0.7-0.6c-0.2-0.3-0.2-0.6-0.2-0.9c0-0.5,0.2-1,0.5-1.4s0.8-0.6,1.3-0.6
		c0.6,0,1,0.2,1.4,0.6c0.3,0.4,0.5,0.8,0.5,1.4c0,0.3-0.1,0.6-0.2,0.9s-0.4,0.5-0.7,0.6c0.4,0.1,0.7,0.4,0.9,0.7s0.3,0.7,0.3,1.2
		c0,0.6-0.2,1.2-0.6,1.6s-0.9,0.6-1.5,0.6s-1.2-0.2-1.5-0.7c-0.4-0.4-0.6-1-0.6-1.6c0-0.5,0.1-0.9,0.3-1.2
		C388.9,542,389.2,541.8,389.6,541.7z M389.2,543.6c0,0.3,0.1,0.5,0.2,0.8s0.3,0.4,0.5,0.6c0.2,0.1,0.4,0.2,0.7,0.2
		c0.4,0,0.7-0.1,0.9-0.4s0.4-0.6,0.4-1.1c0-0.4-0.1-0.8-0.4-1.1s-0.6-0.4-1-0.4s-0.7,0.1-0.9,0.4
		C389.3,542.8,389.2,543.1,389.2,543.6z M389.4,540.1c0,0.4,0.1,0.6,0.3,0.9s0.5,0.3,0.8,0.3s0.6-0.1,0.8-0.3
		c0.2-0.2,0.3-0.5,0.3-0.8s-0.1-0.6-0.3-0.8s-0.5-0.3-0.8-0.3s-0.6,0.1-0.8,0.3C389.5,539.6,389.4,539.8,389.4,540.1z"/>
</g>
<g class="st2">
	<path class="st3" d="M388.5,558l0.8-0.1c0.1,0.4,0.2,0.7,0.4,0.9c0.2,0.2,0.4,0.3,0.7,0.3c0.2,0,0.5-0.1,0.6-0.2
		c0.2-0.1,0.3-0.3,0.5-0.5c0.1-0.2,0.2-0.5,0.3-0.9c0.1-0.4,0.1-0.7,0.1-1.1c0,0,0-0.1,0-0.2c-0.2,0.3-0.4,0.5-0.7,0.7
		c-0.3,0.2-0.6,0.3-0.9,0.3c-0.5,0-1-0.2-1.4-0.7c-0.4-0.4-0.6-1-0.6-1.8s0.2-1.4,0.6-1.8c0.4-0.5,0.9-0.7,1.5-0.7
		c0.4,0,0.8,0.1,1.2,0.4c0.3,0.3,0.6,0.6,0.8,1.1c0.2,0.5,0.3,1.2,0.3,2.1c0,0.9-0.1,1.7-0.3,2.3c-0.2,0.6-0.4,1-0.8,1.3
		s-0.8,0.4-1.2,0.4c-0.5,0-0.9-0.2-1.2-0.5C388.8,559,388.6,558.6,388.5,558z M391.7,554.7c0-0.5-0.1-0.9-0.4-1.2
		c-0.2-0.3-0.5-0.5-0.9-0.5s-0.7,0.2-0.9,0.5c-0.3,0.3-0.4,0.8-0.4,1.3s0.1,0.9,0.4,1.2s0.6,0.4,0.9,0.4c0.4,0,0.7-0.1,0.9-0.4
		S391.7,555.2,391.7,554.7z"/>
</g>
<g class="st2">
	<path class="st3" d="M194.4,663.7h-0.8v-5.8c-0.2,0.2-0.4,0.4-0.8,0.6c-0.3,0.2-0.6,0.4-0.8,0.5v-0.9c0.4-0.2,0.8-0.5,1.2-0.9
		c0.3-0.3,0.6-0.7,0.7-1h0.5L194.4,663.7L194.4,663.7z"/>
</g>
<g class="st2">
	<path class="st3" d="M195.5,676.8v0.9h-4.3c0-0.2,0-0.4,0.1-0.6c0.1-0.3,0.3-0.7,0.5-1s0.6-0.7,1-1.1c0.7-0.7,1.2-1.2,1.4-1.6
		c0.2-0.4,0.4-0.8,0.4-1.1c0-0.4-0.1-0.7-0.3-0.9s-0.5-0.4-0.9-0.4s-0.7,0.1-0.9,0.4c-0.2,0.3-0.3,0.6-0.3,1.1l-0.8-0.1
		c0.1-0.7,0.3-1.2,0.6-1.6s0.9-0.5,1.5-0.5s1.1,0.2,1.5,0.6c0.4,0.4,0.5,0.9,0.5,1.5c0,0.3-0.1,0.6-0.2,0.9
		c-0.1,0.3-0.3,0.6-0.5,0.9c-0.2,0.3-0.7,0.8-1.2,1.3s-0.8,0.8-0.9,0.9c-0.1,0.2-0.2,0.3-0.3,0.5h3.1L195.5,676.8L195.5,676.8z"/>
</g>
<g class="st2">
	<path class="st3" d="M191.4,689.7l0.8-0.1c0.1,0.5,0.2,0.9,0.5,1.1c0.2,0.2,0.5,0.3,0.8,0.3c0.4,0,0.7-0.1,0.9-0.4
		c0.3-0.3,0.4-0.7,0.4-1.1c0-0.4-0.1-0.8-0.4-1c-0.2-0.3-0.5-0.4-0.9-0.4c-0.1,0-0.3,0-0.6,0.1l0.1-0.8c0.1,0,0.1,0,0.1,0
		c0.3,0,0.6-0.1,0.9-0.3c0.3-0.2,0.4-0.5,0.4-0.9c0-0.3-0.1-0.6-0.3-0.8s-0.5-0.3-0.8-0.3s-0.6,0.1-0.8,0.3s-0.3,0.6-0.4,1l-0.8-0.2
		c0.1-0.6,0.3-1.1,0.7-1.4c0.3-0.3,0.8-0.5,1.3-0.5c0.4,0,0.7,0.1,1,0.3s0.5,0.4,0.7,0.7s0.2,0.6,0.2,1c0,0.3-0.1,0.6-0.2,0.9
		c-0.1,0.3-0.4,0.5-0.7,0.6c0.4,0.1,0.7,0.3,0.9,0.6s0.3,0.7,0.3,1.2c0,0.6-0.2,1.2-0.6,1.6c-0.4,0.5-0.9,0.7-1.6,0.7
		c-0.6,0-1-0.2-1.4-0.6C191.6,690.9,191.4,690.4,191.4,689.7z"/>
</g>
<g class="st2">
	<path class="st3" d="M193.9,704.7v-1.8h-2.8v-0.8l2.9-4.8h0.6v4.8h0.9v0.8h-0.9v1.8H193.9z M193.9,702.1v-3.4l-2,3.3h2V702.1z"/>
</g>
<g class="st2">
	<path class="st3" d="M191.4,716.8l0.8-0.1c0.1,0.5,0.2,0.8,0.4,1.1s0.5,0.4,0.8,0.4c0.4,0,0.7-0.2,1-0.5s0.4-0.8,0.4-1.3
		s-0.1-0.9-0.4-1.2c-0.3-0.3-0.6-0.5-1-0.5c-0.3,0-0.5,0.1-0.7,0.2c-0.2,0.1-0.4,0.3-0.5,0.5l-0.7-0.1l0.6-3.8h3.2v0.9h-2.6l-0.3,2
		c0.4-0.3,0.8-0.5,1.2-0.5c0.6,0,1,0.2,1.4,0.7s0.6,1,0.6,1.7s-0.2,1.3-0.5,1.7c-0.4,0.6-1,0.9-1.7,0.9c-0.6,0-1.1-0.2-1.4-0.6
		C191.6,717.9,191.4,717.4,191.4,716.8z"/>
</g>
<g class="st2">
	<path class="st3" d="M195.5,727.1l-0.8,0.1c-0.1-0.4-0.2-0.6-0.3-0.8c-0.2-0.3-0.5-0.4-0.8-0.4s-0.5,0.1-0.7,0.2
		c-0.3,0.2-0.4,0.5-0.6,0.9c-0.1,0.4-0.2,1-0.2,1.7c0.2-0.3,0.4-0.6,0.7-0.7s0.6-0.2,0.9-0.2c0.5,0,1,0.2,1.4,0.7
		c0.4,0.4,0.6,1,0.6,1.7c0,0.5-0.1,0.9-0.3,1.3s-0.4,0.7-0.7,0.9s-0.7,0.3-1,0.3c-0.7,0-1.2-0.3-1.6-0.8c-0.4-0.6-0.6-1.5-0.6-2.8
		c0-1.4,0.2-2.5,0.7-3.1c0.4-0.6,0.9-0.9,1.6-0.9c0.5,0,0.9,0.2,1.2,0.5C195.2,726.1,195.4,726.5,195.5,727.1z M192.3,730.3
		c0,0.3,0.1,0.6,0.2,0.9c0.1,0.3,0.3,0.5,0.5,0.7c0.2,0.1,0.4,0.2,0.7,0.2s0.6-0.2,0.9-0.5s0.4-0.7,0.4-1.3c0-0.5-0.1-0.9-0.4-1.2
		c-0.2-0.3-0.5-0.4-0.9-0.4s-0.7,0.1-0.9,0.4C192.4,729.4,192.3,729.8,192.3,730.3z"/>
</g>
<g class="st2">
	<path class="st3" d="M191.4,740.2v-0.9h4.2v0.7c-0.4,0.5-0.8,1.2-1.2,2s-0.7,1.7-0.9,2.6c-0.2,0.6-0.3,1.3-0.3,2h-0.8
		c0-0.6,0.1-1.3,0.3-2.1s0.5-1.6,0.8-2.4c0.4-0.8,0.7-1.4,1.1-1.9L191.4,740.2L191.4,740.2z"/>
</g>
<g class="st2">
	<path class="st3" d="M192.6,756.7c-0.3-0.1-0.6-0.3-0.7-0.6c-0.2-0.3-0.2-0.6-0.2-0.9c0-0.5,0.2-1,0.5-1.4s0.8-0.6,1.3-0.6
		c0.6,0,1,0.2,1.4,0.6c0.3,0.4,0.5,0.8,0.5,1.4c0,0.3-0.1,0.6-0.2,0.9s-0.4,0.5-0.7,0.6c0.4,0.1,0.7,0.4,0.9,0.7s0.3,0.7,0.3,1.2
		c0,0.6-0.2,1.2-0.6,1.6s-0.9,0.6-1.5,0.6s-1.2-0.2-1.5-0.7c-0.4-0.4-0.6-1-0.6-1.6c0-0.5,0.1-0.9,0.3-1.2
		C191.9,757,192.2,756.8,192.6,756.7z M192.2,758.6c0,0.3,0.1,0.5,0.2,0.8c0.1,0.2,0.3,0.4,0.5,0.6c0.2,0.1,0.4,0.2,0.7,0.2
		c0.4,0,0.7-0.1,0.9-0.4s0.4-0.6,0.4-1.1c0-0.4-0.1-0.8-0.4-1.1c-0.3-0.3-0.6-0.4-1-0.4s-0.7,0.1-0.9,0.4S192.2,758.1,192.2,758.6z
		 M192.4,755.1c0,0.4,0.1,0.6,0.3,0.9c0.2,0.2,0.5,0.3,0.8,0.3s0.6-0.1,0.8-0.3s0.3-0.5,0.3-0.8s-0.1-0.6-0.3-0.8s-0.5-0.3-0.8-0.3
		s-0.6,0.1-0.8,0.3S192.4,754.8,192.4,755.1z"/>
</g>
<g class="st2">
	<path class="st3" d="M391.4,663.7h-0.8v-5.8c-0.2,0.2-0.4,0.4-0.8,0.6c-0.3,0.2-0.6,0.4-0.8,0.5v-0.9c0.4-0.2,0.8-0.5,1.2-0.9
		c0.3-0.3,0.6-0.7,0.7-1h0.5L391.4,663.7L391.4,663.7z"/>
</g>
<g class="st2">
	<path class="st3" d="M392.5,676.8v0.9h-4.3c0-0.2,0-0.4,0.1-0.6c0.1-0.3,0.3-0.7,0.5-1s0.6-0.7,1-1.1c0.7-0.7,1.2-1.2,1.4-1.6
		c0.2-0.4,0.4-0.8,0.4-1.1c0-0.4-0.1-0.7-0.3-0.9s-0.5-0.4-0.9-0.4s-0.7,0.1-0.9,0.4c-0.2,0.3-0.3,0.6-0.3,1.1l-0.8-0.1
		c0.1-0.7,0.3-1.2,0.6-1.6s0.9-0.5,1.5-0.5s1.1,0.2,1.5,0.6c0.4,0.4,0.5,0.9,0.5,1.5c0,0.3-0.1,0.6-0.2,0.9
		c-0.1,0.3-0.3,0.6-0.5,0.9c-0.2,0.3-0.7,0.8-1.2,1.3s-0.8,0.8-0.9,0.9c-0.1,0.2-0.2,0.3-0.3,0.5h3.1L392.5,676.8L392.5,676.8z"/>
</g>
<g class="st2">
	<path class="st3" d="M388.4,689.7l0.8-0.1c0.1,0.5,0.2,0.9,0.5,1.1c0.2,0.2,0.5,0.3,0.8,0.3c0.4,0,0.7-0.1,0.9-0.4
		c0.3-0.3,0.4-0.7,0.4-1.1c0-0.4-0.1-0.8-0.4-1c-0.2-0.3-0.5-0.4-0.9-0.4c-0.1,0-0.3,0-0.6,0.1l0.1-0.8c0.1,0,0.1,0,0.1,0
		c0.3,0,0.6-0.1,0.9-0.3s0.4-0.5,0.4-0.9c0-0.3-0.1-0.6-0.3-0.8s-0.5-0.3-0.8-0.3s-0.6,0.1-0.8,0.3s-0.3,0.6-0.4,1l-0.8-0.2
		c0.1-0.6,0.3-1.1,0.7-1.4s0.8-0.5,1.3-0.5c0.4,0,0.7,0.1,1,0.3s0.5,0.4,0.7,0.7s0.2,0.6,0.2,1c0,0.3-0.1,0.6-0.2,0.9
		c-0.2,0.3-0.4,0.5-0.7,0.6c0.4,0.1,0.7,0.3,0.9,0.6c0.2,0.3,0.3,0.7,0.3,1.2c0,0.6-0.2,1.2-0.6,1.6c-0.4,0.5-0.9,0.7-1.6,0.7
		c-0.6,0-1-0.2-1.4-0.6C388.6,690.9,388.4,690.4,388.4,689.7z"/>
</g>
<g class="st2">
	<path class="st3" d="M390.9,704.7v-1.8h-2.8v-0.8l2.9-4.8h0.6v4.8h0.9v0.8h-0.9v1.8H390.9z M390.9,702.1v-3.4l-2,3.3h2V702.1z"/>
</g>
<g class="st2">
	<path class="st3" d="M388.4,716.8l0.8-0.1c0.1,0.5,0.2,0.8,0.4,1.1s0.5,0.4,0.8,0.4c0.4,0,0.7-0.2,1-0.5s0.4-0.8,0.4-1.3
		s-0.1-0.9-0.4-1.2s-0.6-0.5-1-0.5c-0.3,0-0.5,0.1-0.7,0.2c-0.2,0.1-0.4,0.3-0.5,0.5l-0.7-0.1l0.6-3.8h3.2v0.9h-2.6l-0.3,2
		c0.4-0.3,0.8-0.5,1.2-0.5c0.6,0,1,0.2,1.4,0.7c0.4,0.4,0.6,1,0.6,1.7s-0.2,1.3-0.5,1.7c-0.4,0.6-1,0.9-1.7,0.9
		c-0.6,0-1.1-0.2-1.4-0.6C388.6,717.9,388.4,717.4,388.4,716.8z"/>
</g>
<g class="st2">
	<path class="st3" d="M392.5,727.1l-0.8,0.1c-0.1-0.4-0.2-0.6-0.3-0.8c-0.2-0.3-0.5-0.4-0.8-0.4s-0.5,0.1-0.7,0.2
		c-0.3,0.2-0.4,0.5-0.6,0.9c-0.1,0.4-0.2,1-0.2,1.7c0.2-0.3,0.4-0.6,0.7-0.7s0.6-0.2,0.9-0.2c0.5,0,1,0.2,1.4,0.7
		c0.4,0.4,0.6,1,0.6,1.7c0,0.5-0.1,0.9-0.3,1.3c-0.2,0.4-0.4,0.7-0.7,0.9c-0.3,0.2-0.7,0.3-1,0.3c-0.7,0-1.2-0.3-1.6-0.8
		c-0.4-0.6-0.6-1.5-0.6-2.8c0-1.4,0.2-2.5,0.7-3.1c0.4-0.6,0.9-0.9,1.6-0.9c0.5,0,0.9,0.2,1.2,0.5
		C392.2,726.1,392.4,726.5,392.5,727.1z M389.3,730.3c0,0.3,0.1,0.6,0.2,0.9c0.1,0.3,0.3,0.5,0.5,0.7c0.2,0.1,0.4,0.2,0.7,0.2
		c0.3,0,0.6-0.2,0.9-0.5s0.4-0.7,0.4-1.3c0-0.5-0.1-0.9-0.4-1.2c-0.2-0.3-0.5-0.4-0.9-0.4s-0.7,0.1-0.9,0.4
		C389.4,729.4,389.3,729.8,389.3,730.3z"/>
</g>
<g class="st2">
	<path class="st3" d="M388.4,740.2v-0.9h4.2v0.7c-0.4,0.5-0.8,1.2-1.2,2c-0.4,0.8-0.7,1.7-0.9,2.6c-0.2,0.6-0.3,1.3-0.3,2h-0.8
		c0-0.6,0.1-1.3,0.3-2.1s0.5-1.6,0.8-2.4c0.4-0.8,0.7-1.4,1.1-1.9L388.4,740.2L388.4,740.2z"/>
</g>
<g class="st2">
	<path class="st3" d="M389.6,756.7c-0.3-0.1-0.6-0.3-0.7-0.6c-0.2-0.3-0.2-0.6-0.2-0.9c0-0.5,0.2-1,0.5-1.4s0.8-0.6,1.3-0.6
		c0.6,0,1,0.2,1.4,0.6c0.3,0.4,0.5,0.8,0.5,1.4c0,0.3-0.1,0.6-0.2,0.9s-0.4,0.5-0.7,0.6c0.4,0.1,0.7,0.4,0.9,0.7s0.3,0.7,0.3,1.2
		c0,0.6-0.2,1.2-0.6,1.6s-0.9,0.6-1.5,0.6s-1.2-0.2-1.5-0.7c-0.4-0.4-0.6-1-0.6-1.6c0-0.5,0.1-0.9,0.3-1.2
		C388.9,757,389.2,756.8,389.6,756.7z M389.2,758.6c0,0.3,0.1,0.5,0.2,0.8s0.3,0.4,0.5,0.6c0.2,0.1,0.4,0.2,0.7,0.2
		c0.4,0,0.7-0.1,0.9-0.4s0.4-0.6,0.4-1.1c0-0.4-0.1-0.8-0.4-1.1s-0.6-0.4-1-0.4s-0.7,0.1-0.9,0.4
		C389.3,757.8,389.2,758.1,389.2,758.6z M389.4,755.1c0,0.4,0.1,0.6,0.3,0.9s0.5,0.3,0.8,0.3s0.6-0.1,0.8-0.3
		c0.2-0.2,0.3-0.5,0.3-0.8s-0.1-0.6-0.3-0.8s-0.5-0.3-0.8-0.3s-0.6,0.1-0.8,0.3C389.5,754.6,389.4,754.8,389.4,755.1z"/>
</g>
<g class="st2">
	<path class="st3" d="M278,29.9v9h-1.9v-9h-10.3v-1.7h22.5v1.7H278z M269.6,24.9v-9.3h15v9.3H269.6z M282.7,17.2h-11.3v6h11.3V17.2z
		"/>
	<path class="st3" d="M302.9,32c-2.4,0.2-5.8,0.4-10.3,0.4V16.8h9.3v1.7h-7.4v12.2h2.2c2.6,0,4.6-0.1,6.1-0.3L302.9,32z M309.5,38.9
		V26.3h-3.1v11.9h-1.8v-23h1.8v9.5h3.1v-10h1.9v24.3H309.5z"/>
</g>
<g id="_그룹_">
	<circle id="_패스_2" class="st4" cx="292" cy="377.7" r="15"/>
	<g class="st2">
		<path class="st1" d="M289.3,383.7h-2.2v-8.3c-0.8,0.8-1.7,1.3-2.8,1.7v-2c0.6-0.2,1.2-0.5,1.9-1.1s1.1-1.1,1.4-1.8h1.8
			L289.3,383.7L289.3,383.7z"/>
		<path class="st1" d="M292.1,383.7v-11.5h7.9v1.9h-5.5v2.7h4.8v1.9h-4.8v4.9h-2.4V383.7z"/>
	</g>
</g>
<g id="_그룹_2">
	<circle id="_패스_3" class="st4" cx="293" cy="592.7" r="15"/>
	<g class="st2">
		<path class="st1" d="M292.1,596.7v2h-7.7c0.1-0.8,0.3-1.5,0.8-2.2c0.4-0.7,1.2-1.6,2.5-2.7c1-0.9,1.6-1.5,1.8-1.9
			c0.3-0.5,0.5-0.9,0.5-1.3c0-0.5-0.1-0.9-0.4-1.1c-0.3-0.3-0.6-0.4-1.1-0.4s-0.8,0.1-1.1,0.4c-0.3,0.3-0.4,0.7-0.5,1.4l-2.2-0.2
			c0.1-1.2,0.5-2.1,1.2-2.6s1.5-0.8,2.6-0.8s2,0.3,2.7,0.9c0.6,0.6,1,1.4,1,2.3c0,0.5-0.1,1-0.3,1.5c-0.2,0.5-0.5,1-0.9,1.5
			c-0.3,0.3-0.7,0.8-1.4,1.5c-0.7,0.6-1.1,1.1-1.3,1.3c-0.2,0.2-0.3,0.4-0.4,0.6h4.2L292.1,596.7L292.1,596.7z"/>
		<path class="st1" d="M293.1,598.7v-11.5h7.9v1.9h-5.5v2.7h4.8v1.9h-4.8v4.9L293.1,598.7L293.1,598.7z"/>
	</g>
</g>
<g id="_그룹_3">
	<circle id="_패스_4" class="st4" cx="293" cy="789.7" r="15"/>
	<g class="st2">
		<path class="st1" d="M284.6,792.7l2.1-0.3c0.1,0.5,0.3,1,0.5,1.2s0.7,0.4,1.1,0.4c0.5,0,0.8-0.2,1.1-0.5c0.3-0.3,0.5-0.8,0.5-1.4
			c0-0.6-0.1-1-0.4-1.3s-0.7-0.5-1.1-0.5c-0.3,0-0.6,0.1-1,0.2l0.2-1.8c0.6,0,1-0.1,1.4-0.4s0.5-0.6,0.5-1.1c0-0.4-0.1-0.7-0.3-0.9
			c-0.2-0.2-0.5-0.3-0.9-0.3s-0.7,0.1-1,0.4s-0.4,0.6-0.5,1.1l-2-0.3c0.1-0.7,0.4-1.2,0.6-1.7c0.3-0.4,0.7-0.7,1.2-1
			s1.1-0.4,1.7-0.4c1.1,0,1.9,0.3,2.6,1c0.5,0.6,0.8,1.2,0.8,1.9c0,1-0.5,1.8-1.6,2.4c0.7,0.1,1.2,0.5,1.6,0.9
			c0.4,0.5,0.6,1.1,0.6,1.8c0,1-0.4,1.9-1.1,2.6s-1.6,1.1-2.7,1.1c-1,0-1.9-0.3-2.6-0.9C285.1,794.4,284.7,793.6,284.6,792.7z"/>
		<path class="st1" d="M293.1,795.7v-11.5h7.9v1.9h-5.5v2.7h4.8v1.9h-4.8v4.9L293.1,795.7L293.1,795.7z"/>
	</g>
</g>
<g>
	<path class="st5" d="M52.7,53.3l-1.6,0.3l1.1,1.5l-0.6,0.4l-0.9-1.6l-0.9,1.6L49,55.1l1.1-1.5l-1.7-0.3l0.3-0.7l1.6,0.6l-0.1-1.8
		H51l-0.1,1.8l1.6-0.6L52.7,53.3z"/>
	<path class="st5" d="M62.1,53.6c0-0.5-0.2-0.9-0.5-1.2S60.9,52,60.4,52c-0.4,0-0.7,0.1-1.1,0.3s-0.7,0.4-1,0.8v-1
		c0.6-0.6,1.3-0.8,2.2-0.8c0.7,0,1.3,0.2,1.8,0.6s0.7,1,0.7,1.7c0,0.6-0.1,1.2-0.4,1.6s-0.8,0.9-1.5,1.4c-0.7,0.5-1.1,0.8-1.4,1
		s-0.4,0.5-0.5,0.7S59,58.8,59,59.1h4.2v0.8H58v-0.4c0-0.5,0.1-0.9,0.2-1.2s0.3-0.7,0.7-1s0.8-0.7,1.5-1.2c0.6-0.4,1.1-0.8,1.3-1.2
		S62.1,54.1,62.1,53.6z"/>
	<path class="st5" d="M71.3,55.5c-0.7,0.1-2.7,0.1-5.7,0.1v-5.2h5.3v0.8h-4.4v3.7c2.4,0,4,0,4.8-0.1L71.3,55.5z M66.7,60.6V57h0.9
		v2.9h6.3v0.8H66.7z M73.6,54v3.9h-0.9v-8.3h0.9v3.5h1.7V54H73.6z"/>
	<path class="st5" d="M83.4,60.6v-4.3H81v-0.8h2.3v-2.4h-2c-0.6,2.1-1.9,3.8-3.9,5.1l-0.7-0.6c1-0.5,1.9-1.4,2.7-2.6
		s1.2-2.4,1.3-3.7h-3.3v-0.8h4.3c0,0.7-0.1,1.2-0.2,1.7h1.8v-2.5h0.9v10.7H83.4z M85.4,61V49.7h0.9V61H85.4z"/>
	<path class="st5" d="M96.5,58.1c-0.9,0-1.6-0.3-2.1-1s-0.8-1.6-0.8-2.8c0-1.2,0.3-2.1,0.8-2.8s1.2-1,2.1-1c0.9,0,1.6,0.3,2.1,1
		s0.8,1.6,0.8,2.8c0,1.2-0.3,2.1-0.8,2.8S97.3,58.1,96.5,58.1z M96.5,51.2c-0.6,0-1.1,0.3-1.5,0.8s-0.6,1.3-0.6,2.2
		c0,0.9,0.2,1.7,0.6,2.2s0.9,0.8,1.5,0.8c0.6,0,1.1-0.3,1.5-0.8s0.6-1.3,0.6-2.2c0-0.9-0.2-1.7-0.6-2.2S97.1,51.2,96.5,51.2z
		 M101.5,61V49.7h0.9V61H101.5z"/>
	<path class="st5" d="M110.9,55.6c-0.5-0.3-1-0.7-1.5-1.2s-0.9-1-1.1-1.4c-0.2,0.5-0.6,1-1.1,1.6s-1.1,1-1.6,1.3l-0.6-0.6
		c0.8-0.4,1.5-1,2.1-1.7s0.8-1.5,0.8-2.3v-1.2h0.8v1.2c0,0.8,0.3,1.5,0.8,2.2s1.2,1.2,2,1.5L110.9,55.6z M110.3,60.9
		c-1.2,0-2.1-0.2-2.7-0.6s-1-0.9-1-1.6c0-0.6,0.3-1.2,1-1.6s1.5-0.6,2.7-0.6c1.2,0,2.1,0.2,2.7,0.6s1,0.9,1,1.6c0,0.7-0.3,1.2-1,1.6
		S111.5,60.9,110.3,60.9z M110.3,57.3c-0.9,0-1.6,0.1-2,0.4s-0.7,0.6-0.7,1c0,0.4,0.2,0.8,0.7,1.1s1.2,0.4,2,0.4
		c0.9,0,1.6-0.1,2-0.4s0.7-0.6,0.7-1.1c0-0.4-0.2-0.8-0.7-1S111.2,57.3,110.3,57.3z M113.8,53.6v2.6h-0.9v-6.5h0.9v3.1h1.7v0.8
		H113.8z"/>
	<path class="st5" d="M127.2,50.3c0,1.2-0.5,2.4-1.4,3.5s-2.2,2-3.7,2.6l-0.6-0.7c1.3-0.4,2.3-1,3.2-1.9s1.4-1.8,1.5-2.7h-4v-0.8
		H127.2z M129.7,61v-3.6h-6.4v-0.8h7.3V61H129.7z M129.7,56v-1.3h-2.4v-0.8h2.4v-1.6h-2.3v-0.8h2.3v-1.8h0.9V56H129.7z"/>
	<path class="st5" d="M139.2,55.6c-0.5-0.3-1-0.7-1.5-1.2s-0.9-1-1.1-1.4c-0.2,0.5-0.6,1-1.1,1.6s-1.1,1-1.6,1.3l-0.6-0.6
		c0.8-0.4,1.5-1,2.1-1.7s0.8-1.5,0.8-2.3v-1.2h0.8v1.2c0,0.8,0.3,1.5,0.8,2.2s1.2,1.2,2,1.5L139.2,55.6z M138.5,60.9
		c-1.2,0-2.1-0.2-2.7-0.6s-1-0.9-1-1.6c0-0.6,0.3-1.2,1-1.6s1.5-0.6,2.7-0.6c1.2,0,2.1,0.2,2.7,0.6s1,0.9,1,1.6c0,0.7-0.3,1.2-1,1.6
		S139.7,60.9,138.5,60.9z M138.5,57.3c-0.9,0-1.6,0.1-2,0.4s-0.7,0.6-0.7,1c0,0.4,0.2,0.8,0.7,1.1s1.2,0.4,2,0.4
		c0.9,0,1.6-0.1,2-0.4s0.7-0.6,0.7-1.1c0-0.4-0.2-0.8-0.7-1S139.4,57.3,138.5,57.3z M142,53.6v2.6h-0.9v-6.5h0.9v3.1h1.7v0.8H142z"
		/>
	<path class="st5" d="M151.5,58.1c-0.6-0.5-1.2-1.1-1.8-1.8s-0.9-1.4-1.1-1.9c-0.2,0.6-0.5,1.3-1.1,2s-1.1,1.4-1.7,1.8l-0.7-0.6
		c0.9-0.6,1.7-1.4,2.2-2.4s0.8-2,0.8-3v-1.9h0.9v1.8c0,1,0.3,1.9,0.8,2.9s1.3,1.7,2.2,2.3L151.5,58.1z M153.7,61V49.7h0.9V61H153.7z
		"/>
	<path class="st5" d="M165.2,55.1c-0.9,0-1.5-0.2-2.1-0.7s-0.8-1.1-0.8-1.9c0-0.8,0.3-1.4,0.8-1.9s1.2-0.7,2.1-0.7
		c0.8,0,1.5,0.2,2.1,0.7s0.8,1.1,0.8,1.9c0,0.8-0.3,1.4-0.8,1.9S166,55.1,165.2,55.1z M165.2,50.7c-0.6,0-1.1,0.2-1.5,0.5
		s-0.5,0.8-0.5,1.3c0,0.6,0.2,1,0.5,1.4s0.8,0.5,1.5,0.5s1.1-0.2,1.5-0.5s0.5-0.8,0.5-1.4c0-0.6-0.2-1-0.5-1.3
		S165.8,50.7,165.2,50.7z M163.8,60.7V58h6.1v-1.1h-6.1v-0.8h7v2.6h-6.1V60h6.4v0.8H163.8z M169.9,55.5v-5.8h0.9v5.8H169.9z"/>
	<path class="st5" d="M180.7,55.1c-2.3,0.1-4.7,0.2-7.3,0.2l-0.1-0.8c1,0,1.9,0,2.8,0v-2.1h0.9v2.1c1.5,0,2.7-0.1,3.7-0.1
		L180.7,55.1z M179.9,50.1c0,1.2-0.1,2.4-0.2,3.5l-0.8-0.1c0.1-1.2,0.2-2.1,0.2-2.7h-4.7v-0.8H179.9z M175.2,60.7V58h6.3v-1h-6.3
		v-0.8h7.1v2.6h-6.3v1.1h6.6v0.8H175.2z M182.4,53.5v2.1h-0.9v-5.9h0.9v3h1.7v0.8H182.4z"/>
	<path class="st5" d="M193.3,60.7v-4.2c-1.9,0-3.1,0-3.6,0l-0.1-0.8c0.9,0,2.3,0,4.1,0s3.1-0.1,3.8-0.1l0,0.8
		c-0.9,0.1-2,0.1-3.4,0.1v4.2H193.3z M196.7,54.6c-0.6-0.1-1.2-0.4-1.8-0.7s-1-0.7-1.2-1.1c-0.2,0.4-0.6,0.8-1.2,1.2
		s-1.2,0.7-1.8,0.8l-0.6-0.7c0.8-0.1,1.5-0.4,2.1-0.9s0.9-1,1-1.5h-2.7V51h2.7v-1.3h0.9V51h2.6v0.8h-2.6c0.1,0.5,0.4,1,1,1.4
		s1.3,0.7,2.1,0.8L196.7,54.6z M198.2,61V49.7h0.9V61H198.2z"/>
	<path class="st5" d="M201.6,59.2v-0.8h4.8v-2.7h0.9v2.7h4.8v0.8H201.6z M206.8,52.6c-0.3,0.6-0.8,1.2-1.6,1.8s-1.6,1-2.6,1.3
		l-0.6-0.7c1.3-0.3,2.4-0.8,3.2-1.6s1.2-1.5,1.2-2.2v-0.6h0.9v0.6c0,0.7,0.4,1.4,1.2,2.2s1.8,1.3,3.2,1.6l-0.6,0.7
		c-0.9-0.3-1.7-0.7-2.5-1.3S207.1,53.2,206.8,52.6z"/>
	<path class="st5" d="M214,59l-0.1-0.8h0.6c1.2,0,2.1,0,2.8,0v-2.7h-2.4v-4.7h5.6v0.8h-4.7v3.2h4.8v0.8h-2.4v2.7
		c1.5,0,2.6-0.1,3.2-0.1l0.1,0.8c-0.7,0.1-1.9,0.1-3.6,0.1S214.8,59,214,59z M222.2,61V49.7h0.9V61H222.2z"/>
	<path class="st5" d="M225.6,56.2v-0.8h10.5v0.8H225.6z M227.4,60.6v-3.4h0.9v2.6h6.3v0.8H227.4z M227.5,53.9v-3.8h0.9v3h6.2v0.8
		H227.5z"/>
	<path class="st5" d="M247.8,50.7c-0.1,3.2-1.8,5.7-5.1,7.6l-0.7-0.7c1.2-0.5,2.2-1.3,3.2-2.4s1.5-2.3,1.6-3.8h-4.3v-0.8H247.8z
		 M250.6,55.1V61h-0.9V49.7h0.9v4.7h2v0.8H250.6z"/>
	<path class="st5" d="M255,56.1v-5.9h0.9v2.1h3.5v-2.1h0.9v1.4h2.1v-2h0.9v8.3h-0.9v-3h-2.1v1.1H255z M259.4,53.1h-3.5v2.2h3.5V53.1
		z M256.3,60.7V57h0.9v2.9h6.4v0.8H256.3z M260.2,54.2h2.1v-1.7h-2.1V54.2z"/>
	<path class="st5" d="M271.9,55.6c-0.5-0.3-1-0.7-1.5-1.2s-0.9-1-1.1-1.4c-0.2,0.5-0.6,1-1.1,1.6s-1,1-1.6,1.3l-0.6-0.6
		c0.8-0.4,1.5-1,2-1.7s0.8-1.5,0.8-2.3v-1.3h0.8v1.3c0,0.7,0.3,1.5,0.8,2.2s1.2,1.2,2,1.5L271.9,55.6z M274.2,61v-3.4h-6.5v-0.8h7.4
		V61H274.2z M274.2,56.2v-3.3h-2.7v-0.8h2.7v-2.4h0.9v6.5H274.2z"/>
	<path class="st5" d="M277.8,56.3v-0.8h10.5v0.8H277.8z M283.1,54.4c-1.1,0-2-0.2-2.6-0.6s-0.9-1-0.9-1.6s0.3-1.2,0.9-1.6
		s1.5-0.6,2.6-0.6s2,0.2,2.6,0.6s0.9,1,0.9,1.6s-0.3,1.2-0.9,1.6S284.2,54.4,283.1,54.4z M279.6,60.6v-3.2h0.9v2.4h6.4v0.8H279.6z
		 M283.1,50.6c-0.8,0-1.5,0.1-1.9,0.4s-0.7,0.6-0.7,1.1s0.2,0.8,0.7,1.1s1.1,0.4,1.9,0.4s1.5-0.1,1.9-0.4s0.7-0.6,0.7-1.1
		s-0.2-0.8-0.7-1.1S283.9,50.6,283.1,50.6z"/>
	<path class="st5" d="M299.1,56.5c-0.4,1.2-1.1,1.7-2.1,1.7c-0.8,0-1.4-0.3-1.8-1s-0.6-1.6-0.6-2.9c0-1.3,0.2-2.2,0.6-2.9s1-1,1.8-1
		c1,0,1.7,0.6,2.1,1.7h1.7v-2.1h0.9v11h-0.9v-4.4H299.1z M296.9,51.2c-1.1,0-1.6,1-1.6,3.1c0,2.1,0.5,3.1,1.6,3.1
		c1.1,0,1.6-1,1.6-3.1C298.5,52.2,298,51.2,296.9,51.2z M299.3,55.7h1.5v-2.9h-1.5c0.1,0.5,0.1,1,0.1,1.5
		C299.4,54.8,299.3,55.3,299.3,55.7z M302.8,61V49.7h0.9V61H302.8z"/>
	<path class="st5" d="M306.7,57.7v-7h4.5v7H306.7z M310.4,51.5h-2.8v5.5h2.8V51.5z M314.8,61v-5.9h-1.4v5.6h-0.9V49.9h0.9v4.4h1.4
		v-4.6h0.9V61H314.8z"/>
	<path class="st5" d="M324,58c-0.4,0.1-1,0.1-1.7,0.1h-4.3v-0.8h1.4l-0.2-5.1h0.9l0.1,5.1h1.4l0.1-5.1h0.9l-0.2,5.1
		c0.7,0,1.2,0,1.5-0.1L324,58z M318.2,51.4v-0.8h5.3v0.8H318.2z M324.8,60.6v-5.8h-1.6V54h1.6v-4.1h0.9v10.7H324.8z M326.9,61V49.7
		h0.9V61H326.9z"/>
	<path class="st5" d="M333.6,58.1c-0.9,0-1.6-0.3-2.1-1s-0.8-1.6-0.8-2.8c0-1.2,0.3-2.1,0.8-2.8s1.2-1,2.1-1c0.9,0,1.6,0.3,2.1,1
		s0.8,1.6,0.8,2.8c0,1.2-0.3,2.1-0.8,2.8S334.4,58.1,333.6,58.1z M333.6,51.2c-0.6,0-1.1,0.3-1.5,0.8s-0.6,1.3-0.6,2.2
		c0,0.9,0.2,1.7,0.6,2.2s0.9,0.8,1.5,0.8c0.6,0,1.1-0.3,1.5-0.8s0.6-1.3,0.6-2.2c0-0.9-0.2-1.7-0.6-2.2S334.2,51.2,333.6,51.2z
		 M338.6,61V49.7h0.9V61H338.6z"/>
	<path class="st5" d="M348.4,58.2c-0.7-0.5-1.3-1.1-1.8-1.8s-0.8-1.3-1-1.8c-0.1,0.6-0.5,1.2-1,2s-1.1,1.3-1.7,1.9l-0.7-0.6
		c0.9-0.6,1.6-1.4,2.2-2.4s0.8-2,0.8-3v-0.9h-2.5v-0.8h5.9v0.8H346v0.9c0,1,0.3,2,0.8,3s1.3,1.7,2.1,2.2L348.4,58.2z M350.4,61V49.7
		h0.9V61H350.4z"/>
	<path class="st5" d="M365.8,58.7c-0.6,0.1-1.9,0.1-3.8,0.1s-3.1,0.1-3.8,0.1l-0.1-0.8c0.8,0,2,0,3.4,0v-2.6h0.9v2.6
		c1.6,0,2.7-0.1,3.4-0.1L365.8,58.7z M362.3,51.6V52c0,0.5,0.3,1,0.8,1.6s1.3,1,2.2,1.3l-0.5,0.7c-0.6-0.2-1.2-0.5-1.8-0.9
		s-1-0.9-1.2-1.3c-0.2,0.4-0.6,0.9-1.2,1.3s-1.2,0.8-1.8,1l-0.5-0.7c0.9-0.2,1.7-0.6,2.2-1.3s0.8-1.2,0.8-1.7v-0.4h-2.6v-0.8h6.1
		v0.8H362.3z M369.2,55.1h-1.9V61h-0.9V49.7h0.9v4.7h1.9V55.1z"/>
	<path class="st5" d="M376.4,55.6c-0.5-0.3-1-0.7-1.5-1.2s-0.9-1-1.1-1.4c-0.2,0.5-0.6,1-1.1,1.6s-1,1-1.6,1.3l-0.6-0.6
		c0.8-0.4,1.5-1,2-1.7s0.8-1.5,0.8-2.3v-1.3h0.8v1.3c0,0.7,0.3,1.5,0.8,2.2s1.2,1.2,2,1.5L376.4,55.6z M378.7,61v-3.4h-6.5v-0.8h7.4
		V61H378.7z M378.7,56.2v-3.3H376v-0.8h2.7v-2.4h0.9v6.5H378.7z"/>
	<path class="st5" d="M382.9,57.9v-7.4h0.9v3h2.8v-3h0.9v7.4H382.9z M386.6,54.3h-2.8v2.9h2.8V54.3z M391,61v-5.9h-1.4v5.6h-0.9
		V49.9h0.9v4.4h1.4v-4.6h0.9V61H391z"/>
	<path class="st5" d="M400.9,58.1c-0.7-0.4-1.3-0.9-1.8-1.5s-0.9-1.2-1.1-1.7c-0.2,0.5-0.5,1.1-1.1,1.8s-1.2,1.3-1.7,1.6l-0.7-0.7
		c0.8-0.4,1.6-1.1,2.2-2s0.9-1.8,0.9-2.6v-1.1h-2.8v-0.8h2.8v-1.6h0.9v1.6h2.8v0.8h-2.8l0,1.1c0,0.8,0.3,1.6,0.9,2.4
		s1.4,1.5,2.2,1.8L400.9,58.1z M402.8,61V49.7h0.9V61H402.8z"/>
	<path class="st5" d="M406.3,59.2v-0.8h4.8v-2.6h-3v-5.1h6.9v0.8h-6.1v3.5h6.2v0.8H412v2.6h4.8v0.8H406.3z"/>
	<path class="st5" d="M423.7,54.6c0,1.1-0.3,2-0.7,2.6s-1,0.9-1.8,0.9c-0.8,0-1.4-0.3-1.8-1s-0.6-1.6-0.6-2.9s0.2-2.2,0.6-2.8
		s1-1,1.8-1c0.8,0,1.3,0.3,1.8,0.9s0.7,1.4,0.7,2.5h1.4v-3.9h0.9v10.7H425v-6H423.7z M421.2,51.2c-0.5,0-0.9,0.3-1.2,0.8
		s-0.4,1.3-0.4,2.3s0.1,1.7,0.4,2.3s0.7,0.8,1.2,0.8c0.5,0,0.9-0.3,1.2-0.8s0.4-1.3,0.4-2.3s-0.1-1.7-0.4-2.3S421.7,51.2,421.2,51.2
		z M427,61V49.7h0.9V61H427z"/>
	<path class="st5" d="M436.6,58.1c-0.6-0.5-1.2-1.1-1.8-1.8s-0.9-1.4-1.1-1.9c-0.2,0.6-0.5,1.3-1.1,2s-1.1,1.4-1.7,1.8l-0.7-0.6
		c0.9-0.6,1.7-1.4,2.2-2.4s0.8-2,0.8-3v-1.9h0.9v1.8c0,1,0.3,1.9,0.8,2.9s1.3,1.7,2.2,2.3L436.6,58.1z M438.8,61v-6.8h-2.6v-0.8h2.6
		v-3.7h0.9V61H438.8z"/>
	<path class="st5" d="M453.9,56.8c-1.8,0.1-4.3,0.2-7.4,0.2l-0.1-0.8c1.2,0,2.3,0,3.3,0v-0.9c-0.8-0.1-1.4-0.2-1.8-0.5
		s-0.6-0.7-0.6-1.1c0-0.5,0.2-0.9,0.7-1.2s1.2-0.5,2.1-0.5c0.9,0,1.5,0.2,2,0.5s0.8,0.7,0.8,1.2c0,0.5-0.2,0.9-0.6,1.2
		s-1,0.5-1.8,0.5v0.9c1.3,0,2.4-0.1,3.3-0.1L453.9,56.8z M446.9,51.5v-0.8h2.9v-1.2h0.9v1.2h2.9v0.8H446.9z M454.6,61v-2.5h-6.4
		v-0.8h7.3V61H454.6z M450.2,52.6c-0.6,0-1.1,0.1-1.5,0.3s-0.5,0.4-0.5,0.7s0.2,0.5,0.5,0.7s0.8,0.3,1.4,0.3s1.1-0.1,1.4-0.3
		s0.5-0.4,0.5-0.7c0-0.3-0.2-0.5-0.5-0.7S450.8,52.6,450.2,52.6z M455.5,54.5v2.7h-0.9v-7.5h0.9v4h1.7v0.8H455.5z"/>
	<path class="st5" d="M462.3,55.9c-0.8,0-1.5-0.3-2.1-0.8s-0.8-1.2-0.8-2.1c0-0.9,0.3-1.5,0.8-2.1s1.3-0.8,2.1-0.8s1.6,0.3,2.1,0.8
		s0.8,1.2,0.8,2.1c0,0.8-0.3,1.5-0.8,2.1S463.1,55.9,462.3,55.9z M462.3,50.9c-0.6,0-1.1,0.2-1.5,0.6s-0.6,0.9-0.6,1.5
		s0.2,1.1,0.6,1.5s0.9,0.6,1.5,0.6s1.1-0.2,1.5-0.6s0.6-0.9,0.6-1.5s-0.2-1.1-0.6-1.5S462.9,50.9,462.3,50.9z M460.7,60.6v-3.7h0.9
		v2.9h6.6v0.8H460.7z M467,57.9v-8.3h0.9v8.3H467z"/>
	<path class="st5" d="M476.5,50.7c-0.1,3.2-1.8,5.7-5.1,7.6l-0.7-0.7c1.2-0.5,2.2-1.3,3.2-2.4s1.5-2.3,1.6-3.8h-4.3v-0.8H476.5z
		 M479.3,55.1V61h-0.9V49.7h0.9v4.7h2v0.8H479.3z"/>
	<path class="st5" d="M482.5,55.5v-0.8H493v0.8H482.5z M487.7,60.9c-1.2,0-2.1-0.2-2.7-0.6s-1-0.9-1-1.5c0-0.6,0.3-1.2,1-1.5
		s1.5-0.6,2.7-0.6s2.1,0.2,2.7,0.6s1,0.9,1,1.5c0,0.6-0.3,1.2-1,1.5S488.9,60.9,487.7,60.9z M484.4,53.5v-3.6h0.9v2.8h6.2v0.8H484.4
		z M487.7,57.4c-0.9,0-1.6,0.1-2.1,0.4s-0.7,0.6-0.7,1s0.2,0.7,0.7,1s1.2,0.4,2.1,0.4c0.9,0,1.6-0.1,2.1-0.4s0.7-0.6,0.7-1
		c0-0.4-0.2-0.7-0.7-1S488.6,57.4,487.7,57.4z"/>
	<path class="st5" d="M497.5,49.5h0.9v1.3h2.9v0.8h-6.7v-0.8h2.9V49.5z M497.9,56.2c-0.9,0-1.5-0.2-2-0.6s-0.7-0.9-0.7-1.4
		c0-0.6,0.3-1,0.8-1.4s1.2-0.6,2-0.6s1.5,0.2,2,0.6s0.8,0.9,0.8,1.4s-0.3,1-0.8,1.4S498.8,56.2,497.9,56.2z M497.9,52.9
		c-0.6,0-1.1,0.1-1.4,0.4s-0.5,0.5-0.5,0.9c0,0.4,0.2,0.7,0.5,0.9s0.8,0.4,1.4,0.4s1.1-0.1,1.4-0.4s0.5-0.5,0.5-0.9
		c0-0.4-0.2-0.7-0.5-0.9S498.5,52.9,497.9,52.9z M496.4,60.9v-3.9h0.9v1.3h5.2v-1.3h0.9v3.9H496.4z M502.5,59h-5.2v1.1h5.2V59z
		 M503.3,53.7v2.6h-0.9v-6.6h0.9V53h1.6v0.8H503.3z"/>
	<path class="st5" d="M514.1,57.4c-0.6,0.2-2.8,0.3-6.4,0.3v-7h0.9v6.3h0.8c2.3,0,3.9-0.1,4.7-0.2L514.1,57.4z M515,61V49.7h0.9V61
		H515z"/>
	<path class="st5" d="M525.3,57.6c-0.6,0.1-1.3,0.1-2,0.1s-2,0-4.1,0v-7.1h5.3v0.8h-4.4V57c2.8,0,4.5,0,5.1-0.1L525.3,57.6z
		 M527.3,54.9V61h-0.9V49.7h0.9v4.5h2v0.8H527.3z"/>
	<path class="st5" d="M530.4,59.4c0-0.2,0.1-0.3,0.2-0.5s0.3-0.2,0.5-0.2s0.3,0.1,0.5,0.2s0.2,0.3,0.2,0.5c0,0.2-0.1,0.3-0.2,0.5
		s-0.3,0.2-0.5,0.2s-0.3-0.1-0.5-0.2S530.4,59.6,530.4,59.4z"/>
</g>
</svg>
